<svg width="529" height="343" viewBox="0 0 529 343" fill="none" xmlns="http://www.w3.org/2000/svg">
<g clip-path="url(#clip0_98_597)">
<path d="M455.362 226.626L454.368 226.734L466.645 338.665L467.639 338.556L455.362 226.626Z" fill="#292A2E"/>
<path d="M487.16 275.49L481.12 335.102L482.115 335.202L488.155 275.59L487.16 275.49Z" fill="#292A2E"/>
<path d="M497.544 327.896H452.73V342.407H497.544V327.896Z" fill="#292A2E"/>
<path opacity="0.2" d="M497.544 327.896H452.73V342.407H497.544V327.896Z" fill="white"/>
<path d="M524.56 301.177C533.049 289.92 529.002 272.59 515.52 262.47C502.039 252.349 484.228 253.27 475.738 264.527C467.249 275.784 471.296 293.115 484.778 303.235C498.26 313.356 516.071 312.434 524.56 301.177Z" fill="#0CBC8B"/>
<path opacity="0.2" d="M524.56 301.177C533.049 289.92 529.002 272.59 515.52 262.47C502.039 252.349 484.228 253.27 475.738 264.527C467.249 275.784 471.296 293.115 484.778 303.235C498.26 313.356 516.071 312.434 524.56 301.177Z" fill="white"/>
<path opacity="0.5" d="M524.559 301.18C523.989 301.939 523.367 302.658 522.697 303.332C513.352 309.289 499.558 308.351 488.616 300.135C475.135 290.016 471.09 272.686 479.58 261.429C480.151 260.672 480.771 259.953 481.437 259.277C490.788 253.316 504.576 254.258 515.523 262.47C529.003 272.593 533.049 289.923 524.559 301.18Z" fill="white"/>
<path d="M462.021 258.471C475.377 248.185 479.007 230.544 470.129 219.07C461.251 207.595 443.227 206.631 429.872 216.917C416.516 227.203 412.886 244.843 421.764 256.318C430.642 267.793 448.666 268.756 462.021 258.471Z" fill="#0CBC8B"/>
<path opacity="0.2" d="M457.789 255.518C447.446 263.489 434.301 264.703 424.773 259.515C423.67 258.546 422.663 257.474 421.765 256.313C412.886 244.841 416.515 227.199 429.87 216.916C440.213 208.949 453.358 207.73 462.882 212.914C463.987 213.884 464.996 214.958 465.894 216.121C474.773 227.592 471.144 245.234 457.789 255.518Z" fill="white"/>
<path d="M370.665 163.461L524.274 163.687V106.955H370.665V163.461Z" fill="#EFEFEF"/>
<path d="M511.048 122.691H383.891C383.828 122.693 383.766 122.682 383.707 122.659C383.648 122.637 383.594 122.603 383.549 122.559C383.504 122.515 383.468 122.463 383.443 122.405C383.419 122.347 383.406 122.285 383.406 122.222C383.406 122.16 383.419 122.097 383.443 122.04C383.468 121.982 383.504 121.929 383.549 121.886C383.594 121.842 383.648 121.808 383.707 121.785C383.766 121.763 383.828 121.752 383.891 121.754H511.048C511.111 121.752 511.174 121.763 511.233 121.785C511.291 121.808 511.345 121.842 511.39 121.886C511.435 121.929 511.471 121.982 511.496 122.04C511.52 122.097 511.533 122.16 511.533 122.222C511.533 122.285 511.52 122.347 511.496 122.405C511.471 122.463 511.435 122.515 511.39 122.559C511.345 122.603 511.291 122.637 511.233 122.659C511.174 122.682 511.111 122.693 511.048 122.691Z" fill="white"/>
<path d="M511.048 136.741H383.891C383.828 136.743 383.766 136.733 383.707 136.71C383.648 136.688 383.594 136.653 383.549 136.61C383.504 136.566 383.468 136.514 383.443 136.456C383.419 136.398 383.406 136.336 383.406 136.273C383.406 136.21 383.419 136.148 383.443 136.09C383.468 136.033 383.504 135.98 383.549 135.937C383.594 135.893 383.648 135.859 383.707 135.836C383.766 135.813 383.828 135.803 383.891 135.805H511.048C511.111 135.803 511.174 135.813 511.233 135.836C511.291 135.859 511.345 135.893 511.39 135.937C511.435 135.98 511.471 136.033 511.496 136.09C511.52 136.148 511.533 136.21 511.533 136.273C511.533 136.336 511.52 136.398 511.496 136.456C511.471 136.514 511.435 136.566 511.39 136.61C511.345 136.653 511.291 136.688 511.233 136.71C511.174 136.733 511.111 136.743 511.048 136.741Z" fill="white"/>
<path d="M511.048 150.792H435.529C435.405 150.792 435.285 150.743 435.197 150.655C435.109 150.567 435.06 150.448 435.06 150.324C435.06 150.2 435.109 150.081 435.197 149.993C435.285 149.905 435.405 149.855 435.529 149.855H511.048C511.173 149.855 511.292 149.905 511.38 149.993C511.468 150.081 511.518 150.2 511.518 150.324C511.518 150.448 511.468 150.567 511.38 150.655C511.292 150.743 511.173 150.792 511.048 150.792Z" fill="white"/>
<path d="M187.388 74.061L1.49805 74.1064L1.51205 0H187.388V74.061Z" fill="#EFEFEF"/>
<path d="M173.506 16.3977H15.395C15.296 16.3977 15.2009 16.3585 15.1309 16.2886C15.0608 16.2187 15.0215 16.1239 15.0215 16.025C15.0215 15.9262 15.0608 15.8314 15.1309 15.7615C15.2009 15.6916 15.296 15.6523 15.395 15.6523H173.506C173.605 15.6523 173.7 15.6916 173.77 15.7615C173.84 15.8314 173.879 15.9262 173.879 16.025C173.879 16.1239 173.84 16.2187 173.77 16.2886C173.7 16.3585 173.605 16.3977 173.506 16.3977Z" fill="white"/>
<path d="M173.506 31.1458H15.395C15.296 31.1458 15.2009 31.1065 15.1309 31.0366C15.0608 30.9667 15.0215 30.8719 15.0215 30.7731C15.0215 30.6742 15.0608 30.5794 15.1309 30.5096C15.2009 30.4397 15.296 30.4004 15.395 30.4004H173.506C173.605 30.4004 173.7 30.4397 173.77 30.5096C173.84 30.5794 173.879 30.6742 173.879 30.7731C173.879 30.8719 173.84 30.9667 173.77 31.0366C173.7 31.1065 173.605 31.1458 173.506 31.1458Z" fill="white"/>
<path d="M173.506 45.8958H15.395C15.296 45.8958 15.2009 45.8565 15.1309 45.7866C15.0608 45.7167 15.0215 45.6219 15.0215 45.5231C15.0215 45.4242 15.0608 45.3294 15.1309 45.2595C15.2009 45.1897 15.296 45.1504 15.395 45.1504H173.506C173.605 45.1504 173.7 45.1897 173.77 45.2595C173.84 45.3294 173.879 45.4242 173.879 45.5231C173.879 45.6219 173.84 45.7167 173.77 45.7866C173.7 45.8565 173.605 45.8958 173.506 45.8958Z" fill="white"/>
<path d="M94.6646 60.6438H15.395C15.296 60.6438 15.2009 60.6046 15.1309 60.5347C15.0608 60.4648 15.0215 60.37 15.0215 60.2711C15.0215 60.1723 15.0608 60.0775 15.1309 60.0076C15.2009 59.9377 15.296 59.8984 15.395 59.8984H94.6646C94.7636 59.8984 94.8587 59.9377 94.9287 60.0076C94.9988 60.0775 95.0381 60.1723 95.0381 60.2711C95.0381 60.37 94.9988 60.4648 94.9287 60.5347C94.8587 60.6046 94.7636 60.6438 94.6646 60.6438Z" fill="white"/>
<path d="M439.807 34.8262H102.42C94.1345 34.8262 87.418 41.5274 87.418 49.7938V296.249C87.418 304.515 94.1345 311.217 102.42 311.217H439.807C448.092 311.217 454.809 304.515 454.809 296.249V49.7938C454.809 41.5274 448.092 34.8262 439.807 34.8262Z" fill="white"/>
<path d="M454.808 49.7919V64.8533H87.4199V49.7919C87.4199 45.8222 89.0005 42.0151 91.8139 39.2081C94.6273 36.4012 98.4431 34.8242 102.422 34.8242H439.806C443.785 34.8242 447.601 36.4012 450.414 39.2081C453.227 42.0151 454.808 45.8222 454.808 49.7919Z" fill="#292A2E"/>
<path opacity="0.2" d="M245.738 186.539H191.403C184.548 186.539 178.99 192.084 178.99 198.924C178.99 205.764 184.548 211.309 191.403 211.309H245.738C252.593 211.309 258.151 205.764 258.151 198.924C258.151 192.084 252.593 186.539 245.738 186.539Z" fill="url(#paint0_linear_98_597)"/>
<path opacity="0.2" d="M350.099 186.539H295.765C288.909 186.539 283.352 192.084 283.352 198.924C283.352 205.764 288.909 211.309 295.765 211.309H350.099C356.955 211.309 362.512 205.764 362.512 198.924C362.512 192.084 356.955 186.539 350.099 186.539Z" fill="url(#paint1_linear_98_597)"/>
<path opacity="0.1" d="M418.52 131.201C418.521 134.324 417.905 137.416 416.707 140.302C415.51 143.187 413.754 145.809 411.541 148.017C409.328 150.226 406.701 151.978 403.809 153.173C400.917 154.369 397.817 154.984 394.687 154.984H156.977C153.847 154.984 150.748 154.369 147.856 153.174C144.964 151.979 142.336 150.227 140.123 148.019C137.91 145.811 136.154 143.189 134.956 140.304C133.758 137.418 133.142 134.326 133.142 131.203C133.142 128.08 133.758 124.988 134.956 122.102C136.154 119.217 137.91 116.595 140.123 114.387C142.336 112.179 144.964 110.427 147.856 109.232C150.748 108.037 153.847 107.422 156.977 107.422H394.687C401.008 107.422 407.07 109.927 411.539 114.387C416.009 118.846 418.52 124.894 418.52 131.201Z" fill="url(#paint2_linear_98_597)"/>
<path d="M418.52 131.201C418.521 134.324 417.905 137.416 416.707 140.302C415.51 143.187 413.754 145.809 411.541 148.017C409.328 150.226 406.701 151.978 403.809 153.173C400.917 154.369 397.818 154.984 394.687 154.984H357.763V107.422H394.687C401.008 107.422 407.07 109.927 411.54 114.387C416.009 118.846 418.52 124.894 418.52 131.201Z" fill="url(#paint3_linear_98_597)"/>
<path d="M382.395 137.816C379.593 137.819 376.884 136.818 374.759 134.996C372.634 133.175 371.235 130.653 370.815 127.889C370.396 125.126 370.984 122.304 372.474 119.936C373.963 117.568 376.254 115.812 378.931 114.987C381.607 114.162 384.492 114.322 387.06 115.439C389.628 116.556 391.71 118.555 392.926 121.073C394.143 123.591 394.413 126.46 393.689 129.161C392.964 131.861 391.293 134.212 388.978 135.787C387.038 137.107 384.744 137.814 382.395 137.816ZM382.358 116.948C379.985 116.95 377.703 117.863 375.987 119.499C374.27 121.134 373.251 123.366 373.141 125.732C373.031 128.097 373.838 130.415 375.394 132.202C376.951 133.99 379.138 135.11 381.501 135.331C383.864 135.553 386.222 134.857 388.085 133.39C389.948 131.922 391.173 129.795 391.505 127.451C391.838 125.106 391.252 122.724 389.871 120.798C388.489 118.872 386.417 117.552 384.086 117.11C383.516 117.003 382.938 116.949 382.358 116.948Z" fill="white"/>
<path d="M399.647 147.949C399.464 147.95 399.284 147.91 399.118 147.833C398.952 147.756 398.806 147.643 398.689 147.503L388.263 135.092C388.05 134.838 387.946 134.51 387.976 134.181C388.005 133.851 388.164 133.547 388.418 133.334C388.672 133.122 389 133.019 389.331 133.048C389.661 133.077 389.966 133.236 390.179 133.489L400.605 145.901C400.758 146.083 400.855 146.304 400.886 146.54C400.917 146.775 400.88 147.014 400.78 147.229C400.679 147.444 400.519 147.626 400.319 147.754C400.118 147.881 399.885 147.949 399.647 147.949Z" fill="white"/>
<path d="M18.7496 316.018C15.7282 316.018 12.7517 315.289 10.0733 313.894C7.39496 312.499 5.09411 310.479 3.36661 308.006C1.63911 305.533 0.536133 302.68 0.151558 299.69C-0.233017 296.7 0.112203 293.661 1.15783 290.833C2.21846 287.962 27.1976 220.375 31.9337 208.195L66.8992 221.73C64.2363 228.577 54.5881 254.531 46.8371 275.439L59.7143 274.042L63.7673 311.242L20.7788 315.905C20.1049 315.979 19.4275 316.017 18.7496 316.018Z" fill="url(#paint4_linear_98_597)"/>
<path d="M41.2221 314.105L35.5039 342.502H146.567L140.17 313.564L41.2221 314.105Z" fill="#262626"/>
<path d="M65.2355 187.197C55.9564 187.883 46.4947 190.892 39.5273 197.045C29.0184 206.325 29.9536 212.128 35.1997 237.829C39.7133 259.944 37.9231 269.607 40.9425 310.415C41.0315 311.618 41.222 314.104 41.222 314.104L140.485 313.94C140.485 313.94 149.786 259.798 154.921 234.827C158.826 215.842 169.083 192.796 125.835 188.151C125.721 188.139 91.0353 185.288 65.2355 187.197Z" fill="url(#paint5_linear_98_597)"/>
<path d="M268.537 166.725C263.861 166.724 259.304 165.255 255.511 162.528C251.717 159.801 248.879 155.952 247.398 151.527C245.917 147.103 245.868 142.325 247.257 137.871C248.647 133.416 251.405 129.511 255.142 126.706C258.879 123.902 263.404 122.34 268.079 122.243C272.754 122.146 277.341 123.517 281.192 126.164C285.042 128.811 287.962 132.598 289.536 136.991C291.111 141.383 291.262 146.159 289.967 150.641C288.621 155.276 285.805 159.349 281.94 162.249C278.076 165.149 273.373 166.72 268.537 166.725ZM268.522 127.221C264.133 127.218 259.906 128.876 256.694 131.859C253.481 134.843 251.522 138.931 251.211 143.299C250.9 147.667 252.26 151.99 255.017 155.396C257.775 158.803 261.724 161.04 266.069 161.657C270.414 162.273 274.832 161.223 278.432 158.719C282.032 156.214 284.546 152.44 285.468 148.159C286.39 143.878 285.65 139.407 283.399 135.648C281.147 131.89 277.551 129.122 273.336 127.904C271.771 127.452 270.15 127.222 268.522 127.221Z" fill="#0A0A0A"/>
<path d="M249.711 194.138C249.302 194.138 248.9 194.038 248.539 193.847C248.179 193.656 247.87 193.38 247.641 193.043C247.412 192.705 247.27 192.317 247.226 191.912C247.181 191.507 247.238 191.098 247.389 190.719L258.761 162.252C259.014 161.648 259.494 161.166 260.099 160.912C260.704 160.658 261.385 160.652 261.995 160.894C262.604 161.136 263.094 161.608 263.358 162.208C263.622 162.807 263.64 163.486 263.406 164.098L252.034 192.566C251.849 193.03 251.528 193.427 251.114 193.708C250.7 193.988 250.211 194.138 249.711 194.138Z" fill="#0A0A0A"/>
<path d="M241.004 191.016L247.978 175.408C248.131 175.065 248.354 174.758 248.633 174.506C248.912 174.254 249.24 174.062 249.598 173.944C249.955 173.825 250.333 173.782 250.707 173.817C251.082 173.853 251.445 173.965 251.774 174.148C252.371 174.505 252.813 175.07 253.016 175.733C253.219 176.397 253.167 177.112 252.871 177.74L251.376 181.087L260.92 172.716C261.965 171.768 263.855 171.269 264.846 172.509C265.258 172.961 265.504 173.539 265.544 174.149C265.585 174.759 265.417 175.364 265.068 175.866C265.08 175.874 265.09 175.883 265.1 175.892C265.106 175.901 265.111 175.91 265.116 175.92L266.727 174.456C267.025 174.185 267.381 173.984 267.767 173.868C268.153 173.751 268.561 173.722 268.96 173.782C269.359 173.843 269.739 173.992 270.073 174.217C270.407 174.443 270.687 174.74 270.891 175.088C271.202 175.641 271.313 176.284 271.206 176.909C271.098 177.534 270.779 178.104 270.301 178.522L269.616 179.145C269.624 179.173 269.628 179.202 269.627 179.232C270.188 178.918 270.842 178.814 271.473 178.938C272.104 179.062 272.671 179.406 273.071 179.908C273.493 180.47 273.687 181.17 273.614 181.869C273.541 182.568 273.206 183.213 272.678 183.677L270.975 185.223C271.014 185.218 271.054 185.223 271.092 185.236C271.129 185.25 271.163 185.272 271.19 185.302C271.22 185.338 271.239 185.382 271.245 185.429C271.823 185.288 272.43 185.341 272.975 185.578C273.52 185.815 273.971 186.225 274.26 186.743C274.552 187.294 274.649 187.927 274.536 188.54C274.423 189.153 274.105 189.709 273.635 190.12L259.266 203.172C257.256 204.998 254.744 206.183 252.055 206.576C249.365 206.969 246.618 206.552 244.168 205.377C242.055 204.364 240.421 202.57 239.613 200.374C238.805 198.179 238.887 195.755 239.842 193.619L241.004 191.016Z" fill="#E98862"/>
<g opacity="0.2">
<path d="M255.662 184.198C255.707 184.246 255.768 184.275 255.834 184.278C255.899 184.281 255.963 184.259 256.012 184.216L265.079 176.243C265.104 176.222 265.124 176.195 265.138 176.166C265.153 176.136 265.161 176.104 265.163 176.072C265.165 176.039 265.161 176.006 265.15 175.975C265.139 175.944 265.123 175.916 265.101 175.891C265.079 175.866 265.053 175.846 265.023 175.832C264.994 175.818 264.962 175.809 264.929 175.807C264.896 175.805 264.863 175.81 264.832 175.82C264.801 175.831 264.773 175.847 264.748 175.869L255.682 183.841C255.658 183.863 255.638 183.889 255.623 183.919C255.609 183.948 255.6 183.98 255.598 184.013C255.596 184.046 255.601 184.078 255.611 184.109C255.622 184.14 255.639 184.169 255.66 184.194L255.662 184.198Z" fill="#0C0C0C"/>
</g>
<g opacity="0.2">
<path d="M259.075 188.283C259.12 188.331 259.181 188.36 259.247 188.364C259.312 188.367 259.376 188.345 259.425 188.301L269.544 179.404C269.568 179.382 269.588 179.356 269.603 179.326C269.617 179.297 269.626 179.265 269.628 179.232C269.63 179.2 269.625 179.167 269.615 179.136C269.604 179.105 269.587 179.076 269.566 179.052C269.521 179.004 269.459 178.975 269.394 178.971C269.328 178.967 269.263 178.988 269.213 179.03L259.094 187.926C259.07 187.948 259.05 187.974 259.035 188.004C259.021 188.033 259.012 188.065 259.01 188.098C259.008 188.131 259.013 188.164 259.023 188.195C259.034 188.226 259.051 188.254 259.072 188.279L259.075 188.283Z" fill="#0C0C0C"/>
</g>
<g opacity="0.2">
<path d="M262.747 192.73C262.792 192.778 262.853 192.807 262.919 192.811C262.984 192.814 263.048 192.792 263.097 192.748L271.168 185.651C271.193 185.63 271.213 185.603 271.228 185.574C271.242 185.545 271.25 185.513 271.252 185.48C271.255 185.447 271.25 185.414 271.239 185.383C271.229 185.352 271.212 185.324 271.19 185.299C271.169 185.275 271.142 185.255 271.113 185.24C271.083 185.226 271.051 185.217 271.018 185.215C270.986 185.213 270.953 185.218 270.922 185.228C270.891 185.239 270.862 185.256 270.837 185.277L262.766 192.374C262.742 192.396 262.722 192.422 262.707 192.451C262.693 192.481 262.684 192.513 262.682 192.546C262.68 192.578 262.685 192.611 262.695 192.642C262.706 192.673 262.723 192.702 262.744 192.726L262.747 192.73Z" fill="#0C0C0C"/>
</g>
<path d="M236.646 185.949L194.362 233.457L151.635 196.576L127.097 224.875L183.819 273.837L184.201 274.167C184.335 274.28 184.469 274.391 184.604 274.501C188.385 277.553 193.225 278.982 198.062 278.473C202.898 277.964 207.333 275.559 210.392 271.787L262.362 207.702L236.646 185.949Z" fill="url(#paint6_linear_98_597)"/>
<path d="M125.836 188.152C125.721 188.137 122.571 199.966 97.9827 198.125C80.9605 196.853 76.81 185.293 76.4199 185.293C78.2552 184.904 81.2355 184.5 82.0506 184.066C84.731 182.629 86.6832 180.88 87.6663 177.126C88.4349 174.19 88.8265 162.889 88.8265 157.219L115.02 163.091C114.655 169.487 112.099 184.315 121.056 186.94C122.546 187.374 124.151 187.773 125.836 188.152Z" fill="#E98862"/>
<path d="M114.114 175.667C103.788 176.48 90.5235 172.13 88.0037 158.384L85.7304 145.982C83.2106 132.237 88.4042 119.774 101.376 117.407C114.347 115.04 126.085 124.414 128.605 138.159L129.611 143.647C130.577 148.924 132.536 174.217 114.114 175.667Z" fill="#E98862"/>
<path d="M123.688 163.048C121.834 153.756 120.984 147.557 121.083 141.017C123.694 136.448 123.007 131.204 122.413 128.938C124.972 130.331 126.042 130.485 128.451 130.485C128.451 130.485 124.133 113.196 109.458 108.544C106.758 107.497 99.8701 106.173 90.7219 107.425C82.9409 108.49 63.7605 114.294 61.0181 135.838V135.851C60.9271 136.565 59.0859 156.416 55.4144 165.939C50.4783 178.742 43.5494 182.72 43.7249 197.492C43.951 216.493 78.9624 219.022 100.082 217.601C121.202 216.179 132.986 209.251 133.14 195.558C133.31 180.211 127.396 181.637 123.688 163.048Z" fill="#0A0A0A"/>
<path d="M123.693 155.258C119.751 155.977 115.784 152.353 115.064 148.42C114.343 144.487 117.14 141.735 121.082 141.016L123.693 155.258Z" fill="#E98862"/>
<path d="M152.55 247.093C152.534 247.093 152.518 247.091 152.503 247.088C152.471 247.082 152.44 247.07 152.412 247.052C152.385 247.034 152.361 247.011 152.343 246.984C152.324 246.957 152.311 246.927 152.304 246.895C152.297 246.862 152.297 246.829 152.303 246.797L154.819 233.496C154.824 233.463 154.836 233.431 154.854 233.402C154.871 233.374 154.894 233.349 154.922 233.329C154.949 233.31 154.98 233.296 155.013 233.289C155.046 233.282 155.08 233.281 155.113 233.288C155.146 233.294 155.178 233.307 155.206 233.325C155.234 233.344 155.257 233.368 155.276 233.396C155.294 233.424 155.307 233.455 155.313 233.489C155.319 233.522 155.318 233.555 155.311 233.588L152.795 246.89C152.784 246.947 152.753 246.999 152.709 247.036C152.664 247.073 152.608 247.093 152.55 247.093Z" fill="url(#paint7_linear_98_597)"/>
<path d="M41.222 314.353C41.1573 314.353 41.0952 314.329 41.0486 314.284C41.002 314.239 40.9745 314.178 40.9719 314.114L37.8615 233.55C37.8602 233.518 37.8653 233.485 37.8767 233.454C37.888 233.423 37.9053 233.395 37.9276 233.371C37.9499 233.347 37.9768 233.328 38.0066 233.314C38.0365 233.3 38.0687 233.292 38.1016 233.291C38.167 233.292 38.2299 233.316 38.2779 233.361C38.326 233.405 38.3556 233.466 38.3611 233.531L41.472 314.094C41.4733 314.127 41.4681 314.16 41.4566 314.191C41.4452 314.221 41.4279 314.25 41.4055 314.274C41.3832 314.298 41.3563 314.317 41.3265 314.331C41.2966 314.345 41.2643 314.352 41.2315 314.353H41.222Z" fill="url(#paint8_linear_98_597)"/>
<path d="M191.523 237.55C191.477 237.55 191.432 237.537 191.392 237.512C191.353 237.488 191.321 237.453 191.3 237.412C191.279 237.37 191.27 237.324 191.274 237.278C191.279 237.232 191.296 237.188 191.323 237.151L194.162 233.309C194.202 233.257 194.261 233.223 194.326 233.213C194.391 233.204 194.456 233.221 194.509 233.26C194.562 233.298 194.597 233.356 194.608 233.421C194.618 233.485 194.603 233.551 194.565 233.605L191.723 237.448C191.7 237.48 191.67 237.505 191.636 237.523C191.601 237.54 191.562 237.55 191.523 237.55Z" fill="#0C0C0C"/>
</g>
<defs>
<linearGradient id="paint0_linear_98_597" x1="218.57" y1="186.539" x2="218.57" y2="211.309" gradientUnits="userSpaceOnUse">
<stop stop-color="#EE575C"/>
<stop offset="1" stop-color="#F67147"/>
</linearGradient>
<linearGradient id="paint1_linear_98_597" x1="322.932" y1="186.539" x2="322.932" y2="211.309" gradientUnits="userSpaceOnUse">
<stop stop-color="#EE575C"/>
<stop offset="1" stop-color="#F67147"/>
</linearGradient>
<linearGradient id="paint2_linear_98_597" x1="275.831" y1="107.422" x2="275.831" y2="154.984" gradientUnits="userSpaceOnUse">
<stop stop-color="#EE575C"/>
<stop offset="1" stop-color="#F67147"/>
</linearGradient>
<linearGradient id="paint3_linear_98_597" x1="388.142" y1="107.422" x2="388.142" y2="154.984" gradientUnits="userSpaceOnUse">
<stop stop-color="#EE575C"/>
<stop offset="1" stop-color="#F67147"/>
</linearGradient>
<linearGradient id="paint4_linear_98_597" x1="33.4491" y1="208.195" x2="33.4491" y2="316.018" gradientUnits="userSpaceOnUse">
<stop stop-color="#EE575C"/>
<stop offset="1" stop-color="#F67147"/>
</linearGradient>
<linearGradient id="paint5_linear_98_597" x1="95.113" y1="186.539" x2="95.113" y2="314.104" gradientUnits="userSpaceOnUse">
<stop stop-color="#EE575C"/>
<stop offset="1" stop-color="#F67147"/>
</linearGradient>
<linearGradient id="paint6_linear_98_597" x1="194.729" y1="185.949" x2="194.729" y2="278.574" gradientUnits="userSpaceOnUse">
<stop stop-color="#EE575C"/>
<stop offset="1" stop-color="#F67147"/>
</linearGradient>
<linearGradient id="paint7_linear_98_597" x1="153.808" y1="233.283" x2="153.808" y2="247.093" gradientUnits="userSpaceOnUse">
<stop stop-color="#E35759"/>
<stop offset="1" stop-color="#D8623F"/>
</linearGradient>
<linearGradient id="paint8_linear_98_597" x1="39.6668" y1="233.291" x2="39.6668" y2="314.353" gradientUnits="userSpaceOnUse">
<stop stop-color="#E35759"/>
<stop offset="1" stop-color="#D8623F"/>
</linearGradient>
<clipPath id="clip0_98_597">
<rect width="529" height="343" fill="white"/>
</clipPath>
</defs>
</svg>
