<svg width="1861" height="1660" viewBox="0 0 1861 1660" fill="none" xmlns="http://www.w3.org/2000/svg">
  <defs>
    <linearGradient id="paint0_linear_3095_2556" x1="998.896" y1="1268.6" x2="998.896" y2="370.677" gradientUnits="userSpaceOnUse">
      <stop stop-color="#23e720ff"/>
      <stop offset="1" stop-color="#FA7B3F"/>
    </linearGradient>
    <linearGradient id="paint1_linear_3095_2556" x1="1152.26" y1="758.601" x2="1152.26" y2="424.1" gradientUnits="userSpaceOnUse">
      <stop stop-color="#23e720ff"/>
      <stop offset="1" stop-color="#FA7B3F"/>
    </linearGradient>
    <linearGradient id="paint2_linear_3095_2556" x1="1231.27" y1="1268.6" x2="1231.27" y2="726.954" gradientUnits="userSpaceOnUse">
      <stop stop-color="#23e720ff"/>
      <stop offset="1" stop-color="#FA7B3F"/>
    </linearGradient>
    <linearGradient id="paint3_linear_3095_2556" x1="950.208" y1="1287.75" x2="950.208" y2="528.845" gradientUnits="userSpaceOnUse">
      <stop stop-color="#23e720ff"/>
      <stop offset="1" stop-color="#FA7B3F"/>
    </linearGradient>
    <clipPath id="clip0_3095_2556">
      <rect width="1861" height="1660" fill="white"/>
    </clipPath>
  </defs>

  <!-- Wrapping everything in a group and translating to center -->
  <g transform="translate(243, 135)" clip-path="url(#clip0_3095_2556)">
    <path d="M337.84 831.432L31.9617 654.81C14.3065 644.622 0 617.28 0 593.737V563.613C0 540.076 14.3065 529.257 31.9617 539.445L337.84 716.072C355.48 726.266 369.792 753.608 369.792 777.145V807.269C369.792 830.807 355.48 841.631 337.84 831.432Z" fill="#B5B5B5"/>
    <path d="M768.041 541.947C688.682 496.127 624.341 385.145 624.341 294.067C624.341 202.989 688.682 166.31 768.041 212.134C847.4 257.959 911.72 368.94 911.72 460.018C911.72 551.093 847.4 587.771 768.041 541.947ZM956.549 487.985C956.549 476.584 955.555 464.918 954.093 453.145L1012.17 445.796C1006.26 416.551 997.316 386.982 985.855 357.847L919.669 337.832C908.125 313.077 894.235 289.129 878.474 266.769L894.337 199.974C874.718 175.492 853.452 152.946 830.956 133.167L795.326 179.252C785.797 172.08 776.129 165.355 766.208 159.622C756.273 153.889 746.605 149.447 737.083 145.638L701.462 58.394C678.95 52.1898 657.684 50.1671 638.071 52.0036L653.928 137.113C638.168 141.27 624.292 149.186 612.749 160.615L546.557 104.181C535.101 120.076 526.144 139.322 520.231 161.731L578.316 236.157C576.847 246.233 575.853 256.767 575.853 268.171C575.853 279.549 576.847 291.226 578.316 303.001L520.231 310.347C526.144 339.581 535.101 369.163 546.557 398.286L612.739 418.313C624.292 443.063 638.168 467.006 653.928 489.366L638.071 556.163C657.684 580.655 678.95 603.199 701.462 622.975L737.083 576.889C746.605 584.062 756.273 590.79 766.208 596.519C776.129 602.254 785.797 606.699 795.326 610.518L830.956 697.746C853.452 703.964 874.718 705.975 894.337 704.139L878.474 619.024C894.235 614.866 908.125 606.956 919.669 595.54L985.855 651.95C997.316 636.062 1006.26 616.824 1012.17 594.406L954.093 519.98C955.555 509.913 956.549 499.375 956.549 487.985Z" fill="#7A868B"/>
    <path d="M536.84 766.123C479.968 733.284 433.855 653.749 433.855 588.469C433.855 523.199 479.968 496.908 536.84 529.747C593.717 562.591 639.831 642.125 639.831 707.406C639.831 772.676 593.717 798.962 536.84 766.123ZM671.948 727.443C671.948 719.286 671.244 710.92 670.193 702.476L711.818 697.213C707.577 676.253 701.17 655.062 692.941 634.181L645.525 619.835C637.233 602.094 627.287 584.931 615.996 568.911L627.361 521.036C613.306 503.486 598.065 487.33 581.941 473.153L556.401 506.186C549.577 501.038 542.647 496.22 535.531 492.11C528.407 488.004 521.477 484.815 514.658 482.081L489.128 419.569C472.989 415.112 457.763 413.672 443.698 414.988L455.058 475.979C443.772 478.959 433.822 484.636 425.544 492.817L378.113 452.388C369.899 463.774 363.477 477.558 359.251 493.627L400.866 546.964C399.825 554.185 399.108 561.737 399.108 569.9C399.108 578.067 399.825 586.434 400.866 594.866L359.251 600.131C363.477 621.089 369.899 642.29 378.113 663.163L425.544 677.509C433.822 695.254 443.772 712.413 455.058 728.437L443.698 776.311C457.763 793.863 472.989 810.023 489.128 824.191L514.658 791.168C521.477 796.31 528.407 801.128 535.531 805.234C542.647 809.344 549.577 812.529 556.401 815.263L581.941 877.784C598.065 882.233 613.306 883.683 627.361 882.365L615.996 821.365C627.287 818.383 637.233 812.718 645.525 804.531L692.941 844.96C701.17 833.574 707.577 819.789 711.818 803.722L670.193 750.38C671.244 743.162 671.948 735.61 671.948 727.443Z" fill="#7A868B"/>
    <path d="M354.002 320.646C302.122 290.68 260.075 218.153 260.075 158.617C260.075 99.0813 302.122 75.1081 354.002 105.05C405.873 135.004 447.924 207.556 447.924 267.079C447.924 326.615 405.873 350.6 354.002 320.646ZM477.22 285.369C477.22 277.924 476.581 270.28 475.612 262.587L513.578 257.785C509.716 238.676 503.861 219.344 496.378 200.297L453.11 187.218C445.564 171.038 436.486 155.391 426.189 140.774L436.545 97.1082C423.726 81.1014 409.832 66.3726 395.124 53.4431L371.837 83.5708C365.61 78.8804 359.3 74.4753 352.8 70.7279C346.311 66.9806 339.981 64.077 333.768 61.5829L310.482 4.56623C295.769 0.508669 281.868 -0.806619 269.05 0.384591L279.417 56.024C269.113 58.7414 260.046 63.9157 252.491 71.3732L209.232 34.4954C201.735 44.8812 195.885 57.4509 192.022 72.1176L229.989 120.759C229.03 127.348 228.384 134.222 228.384 141.679C228.384 149.112 229.03 156.756 229.989 164.449L192.022 169.251C195.885 188.36 201.735 207.692 209.232 226.739L252.491 239.818C260.046 256.011 269.113 271.645 279.417 286.262L269.05 329.928C281.868 345.934 295.769 360.676 310.482 373.605L333.768 343.478C339.981 348.168 346.311 352.561 352.8 356.308C359.285 360.055 365.61 362.959 371.837 365.453L395.124 422.477C409.832 426.534 423.726 427.857 436.545 426.65L426.189 371.012C436.486 368.294 445.564 363.133 453.11 355.663L496.378 392.541C503.861 382.155 509.716 369.585 513.578 354.918L475.612 306.277C476.581 299.701 477.22 292.814 477.22 285.369Z" fill="#7A868B"/>
    <path d="M1332.43 716.581C1221.38 653.74 1112.79 546.542 1021.78 409.95L1020.55 409.243C929.545 440.727 820.963 422.526 709.895 357.102L705.654 354.608L711.653 562.154C732.72 883.872 842.441 1023.9 1019.02 1323.01L1023.32 1325.49C1199.9 1230.31 1309.61 1216.99 1330.69 919.609L1336.68 718.99L1332.43 716.581Z" fill="#B5B5B5"/>
    <path d="M1369.78 684.212C1258.72 621.366 1150.14 514.168 1059.12 377.588L1057.89 376.869C966.881 408.361 858.304 390.158 747.25 324.741L742.994 322.234L706.841 355.315L709.895 357.102C820.963 422.526 929.545 440.726 1020.55 409.242L1021.78 409.95C1112.8 546.542 1221.36 653.739 1332.43 716.581L1336.68 718.99L1330.69 919.609C1316.93 1113.7 1265.39 1186.77 1182.17 1240.59C1286.15 1179.18 1352.57 1105.41 1368.03 887.24L1374.03 686.617L1369.78 684.212Z" fill="#EFEDFF"/>
    <path d="M1374.03 686.617L1369.78 684.212C1258.72 621.366 1150.14 514.168 1059.12 377.589L1057.89 376.869L1020.54 409.243L1021.78 409.95C1112.8 546.542 1221.36 653.739 1332.43 716.581L1336.68 718.99L1374.03 686.617Z" fill="#EFEDFF"/>
    <path d="M1336.68 718.99L1330.69 919.609C1316.93 1113.7 1265.39 1186.77 1182.17 1240.59C1286.15 1179.18 1352.58 1105.41 1368.03 887.24L1374.03 686.617L1336.68 718.99Z" fill="#B5B5B5"/>
    <path d="M1320.91 724.603C1212.31 663.157 1106.14 558.345 1017.17 424.794L1015.96 424.1C926.986 454.884 820.818 437.091 712.221 373.122L708.067 370.677L672.723 403.026L675.703 404.775C784.295 468.732 890.469 486.536 979.448 455.752L980.65 456.44C1069.64 589.996 1175.8 694.808 1284.39 756.254L1288.54 758.601L1282.69 954.761C1269.24 1144.53 1218.84 1215.99 1137.47 1268.6C1239.14 1208.56 1304.08 1136.42 1319.2 923.109L1325.07 726.954L1320.91 724.603Z" fill="url(#paint0_linear_3095_2556)"/>
    <path d="M1325.07 726.954L1320.91 724.603C1212.31 663.157 1106.14 558.345 1017.17 424.794L1015.96 424.1L979.448 455.752L980.65 456.44C1069.64 589.996 1175.8 694.808 1284.39 756.254L1288.54 758.601L1325.07 726.954Z" fill="url(#paint1_linear_3095_2556)"/>
    <path d="M1288.54 758.601L1282.69 954.761C1269.24 1144.53 1218.84 1215.99 1137.47 1268.6C1239.14 1208.56 1304.08 1136.42 1319.2 923.109L1325.07 726.954L1288.54 758.601Z" fill="url(#paint2_linear_3095_2556)"/>
    <path d="M1261.48 781.013C1150.43 718.166 1041.83 610.964 950.831 474.384L949.595 473.667C858.595 505.153 750.008 486.953 638.943 421.537L634.703 419.033L640.688 626.586C661.769 948.303 771.476 1088.32 948.068 1387.44L952.357 1389.92C1128.94 1294.73 1238.66 1281.42 1259.74 984.036L1265.74 783.412L1261.48 781.013Z" fill="#B5B5B5"/>
    <path d="M1298.83 748.639C1187.76 685.798 1079.19 578.6 988.171 442.011L986.935 441.304C895.936 472.785 787.348 454.589 676.285 389.166L672.044 386.659L635.89 419.739L638.943 421.537C750.008 486.953 858.595 505.154 949.595 473.667L950.831 474.384C1041.83 610.964 1150.42 718.167 1261.49 781.013L1265.74 783.413L1259.74 984.036C1245.98 1178.13 1194.44 1251.21 1111.22 1305.02C1215.2 1243.61 1281.62 1169.83 1297.08 951.662L1303.07 751.044L1298.83 748.639Z" fill="#EFEDFF"/>
    <path d="M1303.07 751.044L1298.83 748.639C1187.76 685.798 1079.19 578.6 988.171 442.011L986.936 441.303L949.595 473.667L950.831 474.384C1041.83 610.964 1150.42 718.166 1261.49 781.013L1265.74 783.412L1303.07 751.044Z" fill="#EFEDFF"/>
    <path d="M1265.74 783.413L1259.74 984.036C1245.98 1178.13 1194.44 1251.21 1111.22 1305.02C1215.2 1243.61 1281.62 1169.83 1297.08 951.662L1303.07 751.044L1265.74 783.413Z" fill="#B5B5B5"/>
    <path d="M928.256 1251.27C791.177 1023.86 722.228 909.46 705.604 659.865L701.815 528.845C789.835 568.645 874.195 581.329 950.224 566.197C1026.21 669.105 1110.59 753.859 1198.6 815.703L1194.82 942.352C1178.19 1172.77 1109.23 1207.54 972.141 1276.65C964.967 1280.29 957.664 1283.96 950.224 1287.75C942.747 1275.35 935.434 1263.19 928.256 1251.27Z" fill="url(#paint3_linear_3095_2556)"/>
    <path d="M935.88 1247.47C798.801 1020.05 729.847 905.649 713.223 656.056L709.637 532.244C707.035 531.104 704.427 530.029 701.815 528.845L705.604 659.865C722.228 909.46 791.177 1023.86 928.256 1251.27C935.434 1263.19 942.747 1275.35 950.224 1287.75C952.807 1286.43 955.28 1285.19 957.82 1283.9C950.361 1271.51 943.037 1259.37 935.88 1247.47Z" fill="#F47B20"/>
    <path d="M829.711 801.835L930.055 1020.41L1106.99 834.664L1025.13 760.107L930.055 920.399L885.162 812.644L829.711 801.835Z" fill="#EFEDFF"/>
    <g transform="translate(200, 1050) scale(4)">
      <path d="M20 60 C20 10, 100 10, 100 60" stroke="#B5B5B5" stroke-width="8" fill="none" stroke-linecap="round"/>
      <rect x="10" y="55" width="18" height="35" rx="8" fill="#7A868B"/>
      <rect x="92" y="55" width="18" height="35" rx="8" fill="#7A868B"/>
      <path d="M20 85 Q20 110, 45 105" stroke="#B5B5B5" stroke-width="4" fill="none" stroke-linecap="round"/>
      <circle cx="48" cy="105" r="4" fill="#F47B20"/>
    </g>

    <path d="M220.63 706.867C220.63 720.72 230.415 737.593 242.482 744.563C254.55 751.528 264.325 745.949 264.325 732.106C264.325 718.253 254.55 701.38 242.482 694.41C230.415 687.446 220.63 693.019 220.63 706.867Z" fill="#263238"/>
    <path d="M164.277 674.13C164.277 687.979 174.057 704.851 186.125 711.821C198.191 711.821 207.977 713.208 207.977 699.364C207.977 685.511 198.191 668.639 186.125 661.673C174.057 654.704 164.277 660.282 164.277 674.13Z" fill="#263238"/>
    <path d="M107.924 641.394C107.924 655.237 117.704 672.109 129.776 679.08C141.838 686.045 151.618 680.471 151.618 666.623C151.618 652.77 141.838 635.897 129.776 628.933C117.704 621.961 107.924 627.54 107.924 641.394Z" fill="#263238"/>
    <path d="M51.5701 608.652C51.5701 622.5 61.35 639.378 73.4175 646.343C85.4848 653.308 95.2649 647.729 95.2649 633.881C95.2649 620.038 85.4848 603.16 73.4175 596.195C61.35 589.221 51.5701 594.799 51.5701 608.652Z" fill="#263238"/>
  </g>
</svg>