<svg width="439" height="530" viewBox="0 0 439 530" fill="none" xmlns="http://www.w3.org/2000/svg">
<path d="M263.548 485.279C263.548 485.279 272.762 498.898 262.712 510.224C252.662 521.549 263.493 527.748 263.493 527.748L304.343 486.898L283.93 466.49L263.548 485.279Z" fill="url(#paint0_linear_1857_104)"/>
<path d="M261.376 205.137C261.376 205.137 261.195 200.283 261.237 211.293C261.3 229.577 259.561 277.892 260.783 340.164C261.758 389.942 296.411 475.361 296.411 475.361L265.159 497.793C265.159 497.793 218.147 421.542 210.686 346.056C206.867 307.417 199.057 203.467 199.057 203.467L261.376 205.137Z" fill="#262626"/>
<path d="M164.938 499.668C164.938 499.668 161.823 515.814 146.706 516.713C131.588 517.613 134.867 529.656 134.867 529.656H192.637V500.794L164.938 499.668Z" fill="url(#paint1_linear_1857_104)"/>
<path d="M157.595 208.326C157.595 208.326 152.853 348.686 153.347 355.546L157.804 508.908L195.138 509.598L201.158 349.999C201.158 349.999 205.102 305.974 215.742 265.093C221.184 244.112 224.46 222.628 225.516 200.978L157.595 208.326Z" fill="#262626"/>
<path d="M206.847 307.841L203.734 260.234C203.734 260.234 200.536 280.025 200.536 297.085C200.536 305.423 202.254 338.437 202.254 338.437L206.847 307.841Z" fill="#0A0A0A"/>
<path d="M261.786 205.132L261.91 205.139C261.91 205.139 261.823 202.745 261.786 205.132Z" fill="#333333"/>
<path d="M261.632 205.132L261.756 205.139C261.756 205.139 261.666 202.745 261.632 205.132Z" fill="#333333"/>
<path d="M237.186 27.8204C237.186 27.8204 240.194 43.8479 244.529 49.2753C257.012 64.8988 262.313 83.5202 253.019 94.6912C243.726 105.862 176.903 113.99 169.112 91.7839C162.554 73.088 171.455 69.9293 171.787 53.8197C171.937 46.5309 172.911 31.1678 172.911 31.1678" fill="#0A0A0A"/>
<path d="M182.976 83.3134C183.092 83.2988 184.382 104.692 209.237 102.829C226.444 101.54 232.579 83.2834 232.974 83.2834C231.119 82.8893 227.994 82.3155 227.17 81.8761C224.461 80.42 221.108 78.9054 220.235 73.643C219.732 70.6104 220.583 55.0955 220.323 52.0273L193.91 57.9227C194.278 64.403 196.862 79.4263 187.809 82.0864C186.3 82.5251 184.679 82.9297 182.976 83.3134Z" fill="#FFBF9D"/>
<path opacity="0.52" d="M193.542 75.9453C193.955 74.6121 194.222 73.2377 194.336 71.8465C194.626 68.6713 194.568 65.4739 194.163 62.3113C199.531 61.5863 204.588 59.3706 208.759 55.9159C209.247 57.7264 211.947 65.6419 211.196 67.3633C209.788 70.6174 203.151 75.9453 193.542 75.9453Z" fill="#0C0C0C"/>
<path d="M198.228 70.7761C208.687 70.5407 221.571 64.8055 222.696 50.7042L223.712 37.981C224.837 23.8797 218.343 11.8578 205.066 10.7979C191.789 9.73876 180.953 20.3777 179.828 34.479L179.379 40.1119C178.947 45.5226 179.566 71.1967 198.228 70.7761Z" fill="#FFBF9D"/>
<path d="M234.589 41.2039L222.695 40.323C213.476 37.7012 209.156 22.6995 209.156 22.6995C209.156 22.6995 199.553 34.3141 172.911 31.17C172.911 31.17 174.214 -5.65419 213.765 0.747442C226.518 2.81215 236.754 14.3355 237.445 31.1373C237.93 42.9092 234.589 41.2039 234.589 41.2039Z" fill="#0A0A0A"/>
<path d="M221.53 54.9346C225.564 55.2563 229.179 51.2007 229.501 47.166C229.824 43.1313 226.73 40.6453 222.695 40.3229L220.397 42.8611L218.057 54.6574L221.53 54.9346Z" fill="#FFBF9D"/>
<path d="M222.654 40.1781L222.734 39.8425C207.385 36.1316 209.434 21.2399 209.457 21.0895L209.116 21.038C209.093 21.1912 206.992 36.3913 222.654 40.1781Z" fill="#0C0C0C"/>
<path d="M152.094 130.417C152.878 139.614 156.686 196.997 157.438 208.326H261.177C261.763 198.108 264.395 153.429 266.617 133.447C268.738 114.38 272.9 104.835 269.849 99.1975C264.864 89.9847 251.242 84.6617 241.954 83.4041C236.281 82.6381 227.748 82.0852 227.748 82.0852C227.748 82.0852 227.026 96.6976 209.802 97.511C186.357 98.6168 187.922 82.0852 187.806 82.0852C184.008 82.0852 162.31 84.4897 157.001 87.6366C142.538 96.2025 150.433 110.928 152.094 130.417Z" fill="url(#paint2_linear_1857_104)"/>
<path d="M73.2443 147.233C73.125 146.904 72.9398 146.602 72.7 146.347C72.4603 146.092 72.171 145.888 71.8498 145.748C71.5286 145.609 71.1823 145.536 70.8321 145.534C70.4818 145.533 70.1349 145.603 69.8127 145.74C69.1981 146.027 68.7153 146.536 68.4619 147.165C68.2085 147.794 68.2035 148.496 68.4478 149.129L69.6316 152.402L62.1736 144.797C61.2468 143.822 59.4864 143.222 58.4634 144.334C57.577 145.178 55.5283 145.438 55.1954 147.019C55.1843 147.028 55.2052 161.504 56.0645 162.409C59.7127 166.239 68.5293 166.981 73.4491 165.036L81.1919 161.972L73.2443 147.233Z" fill="#FFBF9D"/>
<g opacity="0.1">
<path d="M73.2441 147.233C73.1248 146.904 72.9396 146.602 72.6998 146.347C72.46 146.092 72.1707 145.888 71.8495 145.748C71.5284 145.609 71.1821 145.536 70.8318 145.534C70.4816 145.533 70.1347 145.603 69.8124 145.74C69.1978 146.027 68.715 146.536 68.4617 147.165C68.2083 147.794 68.2032 148.496 68.4476 149.129L69.6314 152.402L62.1734 144.797C61.2465 143.822 59.4861 143.222 58.4632 144.334C57.5767 145.178 55.528 145.438 55.1952 147.019C55.184 147.028 55.2049 161.504 56.0642 162.409C59.7124 166.239 68.529 166.981 73.4488 165.036L81.1917 161.972L73.2441 147.233Z" fill="#0C0C0C"/>
</g>
<path d="M41.1133 206.232L174.17 226.12C176.701 226.498 179.288 226.19 181.66 225.227C184.031 224.265 186.101 222.683 187.653 220.647C189.205 218.612 190.182 216.197 190.481 213.655C190.781 211.113 190.393 208.537 189.358 206.196L138.52 91.2744C137.545 89.071 136.029 87.1498 134.113 85.6892C132.197 84.2286 129.942 83.276 127.56 82.9198C125.177 82.5636 122.742 82.8154 120.483 83.6519C118.223 84.4883 116.212 85.8822 114.635 87.7041L32.4151 182.738C30.7404 184.674 29.6162 187.024 29.1597 189.543C28.7031 192.061 28.9311 194.656 29.8198 197.056C30.7085 199.457 32.2254 201.575 34.2119 203.189C36.1985 204.803 38.5819 205.854 41.1133 206.232Z" fill="url(#paint3_linear_1857_104)"/>
<path opacity="0.48" d="M41.1133 206.232L174.17 226.12C176.701 226.498 179.288 226.19 181.66 225.227C184.031 224.265 186.101 222.683 187.653 220.647C189.205 218.612 190.182 216.197 190.481 213.655C190.781 211.113 190.393 208.537 189.358 206.196L138.52 91.2744C137.545 89.071 136.029 87.1498 134.113 85.6892C132.197 84.2286 129.942 83.276 127.56 82.9198C125.177 82.5636 122.742 82.8154 120.483 83.6519C118.223 84.4883 116.212 85.8822 114.635 87.7041L32.4151 182.738C30.7404 184.674 29.6162 187.024 29.1597 189.543C28.7031 192.061 28.9311 194.656 29.8198 197.056C30.7085 199.457 32.2254 201.575 34.2119 203.189C36.1985 204.803 38.5819 205.854 41.1133 206.232Z" fill="white"/>
<path d="M176.363 226.632C178.794 226.617 181.183 225.997 183.315 224.829C185.447 223.66 187.255 221.98 188.575 219.938C189.896 217.897 190.688 215.559 190.88 213.136C191.072 210.712 190.658 208.279 189.676 206.055L138.838 91.1343C137.84 88.8769 136.287 86.9085 134.324 85.4119C132.361 83.9154 130.052 82.9393 127.61 82.5743C125.169 82.2093 122.675 82.4673 120.36 83.3244C118.046 84.1814 115.985 85.6096 114.37 87.4763L32.1508 182.51C30.4353 184.493 29.2836 186.9 28.8161 189.481C28.3487 192.061 28.5825 194.719 29.4932 197.178C30.4039 199.637 31.9581 201.806 33.9935 203.459C36.0289 205.113 38.4708 206.189 41.0642 206.576L174.12 226.464C174.863 226.575 175.612 226.632 176.363 226.632ZM125.416 83.1067C126.116 83.107 126.814 83.1591 127.505 83.2627C129.833 83.6043 132.035 84.5316 133.906 85.9577C135.777 87.3838 137.254 89.2619 138.2 91.4156L189.034 206.337C190.045 208.62 190.423 211.134 190.13 213.614C189.838 216.094 188.885 218.45 187.371 220.436C185.857 222.422 183.837 223.965 181.523 224.904C179.209 225.844 176.686 226.144 174.216 225.775L41.1603 205.888C38.6905 205.519 36.365 204.493 34.4267 202.919C32.4884 201.344 31.0084 199.278 30.1412 196.936C29.274 194.594 29.0514 192.062 29.4966 189.605C29.9419 187.148 31.0386 184.855 32.6724 182.966L114.896 87.9317C116.199 86.4174 117.813 85.2023 119.629 84.3695C121.445 83.5367 123.419 83.106 125.416 83.1067Z" fill="#FF7300"/>
<path d="M127.685 136.807L130.578 121.393L113.388 118.823L111.647 134.409L108.703 170.442L119.961 172.125L127.685 136.807ZM122.053 190.44C122.966 184.332 119.264 178.963 113.321 178.074C107.378 177.186 102.265 181.237 101.352 187.346C100.447 193.414 104.148 198.782 110.093 199.672C116.037 200.562 121.146 196.511 122.053 190.44Z" fill="white"/>
<path d="M63.7575 158.598C63.855 158.149 63.803 157.679 63.6093 157.262C63.4156 156.845 63.0908 156.502 62.6844 156.286C62.7067 156.257 62.7819 156.2 62.729 156.164L64.4887 156.229C65.0068 156.26 65.5184 156.102 65.929 155.784C66.3396 155.467 66.6215 155.012 66.7226 154.502C66.8058 153.997 66.6981 153.478 66.4206 153.047C66.1431 152.616 65.7155 152.303 65.2206 152.169C65.2359 152.155 65.2366 152.131 65.247 152.113L65.9705 152.14C66.4589 152.166 66.9414 152.023 67.3364 151.735C67.7315 151.447 68.0148 151.031 68.1383 150.558C68.2097 150.259 68.2141 149.949 68.151 149.649C68.088 149.349 67.9591 149.066 67.7737 148.822C67.5883 148.578 67.351 148.378 67.079 148.236C66.8069 148.095 66.5068 148.016 66.2003 148.004L64.5291 147.942C64.5291 147.933 64.5395 147.928 64.5402 147.919C64.5409 147.91 64.5305 147.899 64.5291 147.888C64.9902 147.801 65.4083 147.561 65.7148 147.205C66.0212 146.85 66.1978 146.401 66.2156 145.932C66.3403 144.725 65.0416 143.983 63.9623 143.946L60.5501 144.085C60.0241 144.107 59.5117 144.258 59.0582 144.525C58.6047 144.792 58.2243 145.167 57.9506 145.617C55.583 149.51 49.6381 159.823 53.083 159.952L61.5619 160.265C62.0611 160.271 62.5481 160.11 62.9458 159.809C63.3434 159.507 63.6291 159.081 63.7575 158.598Z" fill="#FFBF9D"/>
<path d="M151.265 175.573C151.298 175.067 151.487 174.583 151.806 174.189C152.125 173.794 152.559 173.509 153.047 173.372C153.026 173.332 153.017 173.287 153.022 173.242C153.032 173.205 153.051 173.172 153.078 173.145C153.105 173.118 153.138 173.098 153.175 173.088L151.136 172.636C150.532 172.515 149.993 172.181 149.617 171.693C149.241 171.206 149.054 170.599 149.091 169.985C149.146 169.379 149.425 168.816 149.872 168.404C150.32 167.992 150.904 167.762 151.513 167.756C151.499 167.735 151.506 167.708 151.499 167.687L150.663 167.501C150.094 167.386 149.583 167.077 149.215 166.628C148.848 166.179 148.648 165.616 148.648 165.036C148.655 164.672 148.743 164.315 148.905 163.989C149.068 163.664 149.3 163.378 149.586 163.153C149.872 162.928 150.204 162.77 150.559 162.689C150.913 162.608 151.281 162.607 151.637 162.685L153.57 163.115C153.57 163.104 153.562 163.096 153.564 163.085C153.566 163.075 153.581 163.065 153.586 163.052C153.083 162.815 152.675 162.413 152.43 161.914C152.185 161.415 152.117 160.847 152.237 160.304C152.455 158.881 154.166 158.424 155.417 158.702L166.698 161L164.021 159.044C163.492 158.673 163.123 158.115 162.99 157.483C162.856 156.851 162.967 156.192 163.301 155.639C163.483 155.36 163.72 155.12 163.998 154.935C164.276 154.75 164.588 154.624 164.916 154.564C165.244 154.504 165.581 154.511 165.906 154.586C166.232 154.66 166.538 154.8 166.807 154.997L181.425 165.681C183.139 166.934 184.297 168.806 184.652 170.9C185.008 172.993 184.534 175.143 183.331 176.892C181.934 178.921 179.963 180.487 177.671 181.389C175.379 182.29 172.869 182.487 170.465 181.953L153.281 178.139C152.705 178.001 152.193 177.672 151.827 177.206C151.461 176.741 151.263 176.165 151.265 175.573Z" fill="#FFBF9D"/>
<g opacity="0.25">
<path d="M164.734 165.384C164.721 165.441 164.686 165.491 164.636 165.523C164.586 165.555 164.526 165.567 164.468 165.555L153.744 163.355C153.714 163.349 153.687 163.337 153.662 163.321C153.638 163.304 153.617 163.283 153.6 163.258C153.584 163.233 153.572 163.205 153.567 163.176C153.561 163.147 153.561 163.117 153.567 163.088C153.573 163.059 153.585 163.031 153.602 163.006C153.618 162.982 153.64 162.961 153.665 162.944C153.689 162.928 153.717 162.917 153.746 162.911C153.776 162.905 153.806 162.906 153.835 162.912L164.559 165.111C164.618 165.123 164.669 165.158 164.702 165.208C164.735 165.258 164.747 165.32 164.735 165.379L164.734 165.384Z" fill="#0C0C0C"/>
</g>
<g opacity="0.25">
<path d="M163.894 170.138C163.881 170.196 163.846 170.246 163.796 170.278C163.746 170.31 163.686 170.322 163.628 170.31L151.657 167.855C151.598 167.843 151.547 167.808 151.514 167.758C151.48 167.707 151.468 167.646 151.48 167.587C151.495 167.529 151.53 167.479 151.58 167.446C151.63 167.413 151.69 167.401 151.749 167.411L163.719 169.865C163.778 169.878 163.829 169.913 163.862 169.963C163.896 170.013 163.907 170.075 163.895 170.134L163.894 170.138Z" fill="#0C0C0C"/>
</g>
<g opacity="0.25">
<path d="M163.014 175.296C163.001 175.354 162.965 175.404 162.916 175.436C162.866 175.468 162.806 175.48 162.748 175.468L153.199 173.51C153.14 173.497 153.088 173.462 153.055 173.412C153.022 173.362 153.01 173.301 153.022 173.242C153.034 173.183 153.069 173.132 153.12 173.099C153.17 173.066 153.231 173.054 153.29 173.066L162.839 175.024C162.868 175.03 162.896 175.042 162.92 175.058C162.945 175.075 162.966 175.096 162.982 175.121C162.999 175.146 163.01 175.174 163.016 175.203C163.021 175.232 163.021 175.262 163.015 175.291L163.014 175.296Z" fill="#0C0C0C"/>
</g>
<path d="M171.526 188.757L264.76 205.609C267.669 205.925 270.612 205.563 273.358 204.551C276.104 203.539 278.578 201.905 280.587 199.776C282.595 197.647 284.083 195.082 284.933 192.282C285.783 189.482 285.973 186.522 285.487 183.636L272.435 106.054C272.035 103.589 271.152 101.228 269.837 99.1059C268.521 96.9837 266.799 95.1425 264.769 93.6883C262.74 92.2341 260.442 91.1956 258.01 90.6324C255.577 90.0693 253.057 89.9927 250.595 90.407C248.133 90.8212 245.777 91.7183 243.663 93.0464C241.548 94.3746 239.717 96.1077 238.275 98.1461C236.833 100.184 235.808 102.488 235.26 104.924C234.711 107.359 234.65 109.88 235.079 112.339L243.979 165.743L175.625 157.159L171.526 188.757Z" fill="url(#paint4_linear_1857_104)"/>
<path d="M264.76 205.95C264.843 205.944 264.92 205.909 264.979 205.851C265.038 205.793 265.074 205.716 265.081 205.634C265.089 205.551 265.066 205.469 265.019 205.402C264.971 205.334 264.901 205.286 264.821 205.266L171.91 188.476L175.924 157.544L243.936 166.086C243.99 166.093 244.044 166.087 244.095 166.069C244.145 166.051 244.191 166.022 244.228 165.983C244.265 165.944 244.293 165.897 244.309 165.845C244.325 165.794 244.329 165.74 244.32 165.687L238.662 131.553C238.637 131.473 238.584 131.405 238.512 131.361C238.441 131.317 238.356 131.3 238.273 131.314C238.19 131.328 238.115 131.371 238.061 131.435C238.008 131.5 237.98 131.582 237.982 131.666L243.564 165.343L175.669 156.816C175.578 156.806 175.487 156.831 175.415 156.887C175.343 156.942 175.295 157.024 175.283 157.115L171.183 188.712C171.173 188.799 171.195 188.888 171.247 188.959C171.299 189.03 171.376 189.079 171.462 189.096L264.695 205.948C264.717 205.95 264.739 205.951 264.76 205.95Z" fill="url(#paint5_linear_1857_104)"/>
<path d="M244.033 165.402L250.03 166.362L249.921 167.045L243.924 166.084L244.033 165.402Z" fill="url(#paint6_linear_1857_104)"/>
<path d="M51.7159 529.997H359.136C359.279 529.997 359.415 529.941 359.516 529.84C359.617 529.739 359.674 529.602 359.674 529.459C359.674 529.316 359.617 529.179 359.516 529.079C359.415 528.978 359.279 528.921 359.136 528.921H51.7159C51.5732 528.921 51.4362 528.978 51.3353 529.079C51.2343 529.179 51.1776 529.316 51.1776 529.459C51.1776 529.602 51.2343 529.739 51.3353 529.84C51.4362 529.941 51.5732 529.997 51.7159 529.997Z" fill="#3F3F3F"/>
<path d="M338.751 360.039L428.93 359.978C430.645 359.977 432.329 359.515 433.805 358.641C435.281 357.767 436.496 356.512 437.321 355.008C438.147 353.505 438.554 351.807 438.5 350.092C438.446 348.377 437.932 346.709 437.013 345.26L391.876 274.142C391.011 272.779 389.815 271.656 388.399 270.878C386.983 270.101 385.394 269.694 383.779 269.695C382.164 269.696 380.575 270.105 379.16 270.885C377.746 271.664 376.551 272.789 375.687 274.154L330.646 345.332C329.729 346.782 329.218 348.451 329.166 350.166C329.114 351.881 329.523 353.578 330.352 355.081C331.18 356.584 332.396 357.836 333.873 358.709C335.351 359.581 337.035 360.04 338.751 360.039Z" fill="#F4F4F4"/>
<path d="M390.828 341.518C390.828 337.377 387.834 334.188 383.807 334.191C379.781 334.194 376.794 337.387 376.796 341.528C376.796 345.64 379.791 348.829 383.816 348.826C387.842 348.823 390.831 345.631 390.828 341.518ZM389.222 305.405L389.606 294.9L377.955 294.908L378.355 305.412L379.99 329.591L387.616 329.585L389.222 305.405Z" fill="white"/>
<path d="M303.536 126.606L376.113 126.557C377.493 126.556 378.849 126.185 380.037 125.481C381.225 124.778 382.203 123.768 382.867 122.558C383.532 121.347 383.86 119.981 383.816 118.601C383.773 117.22 383.359 115.877 382.619 114.711L346.292 57.4749C345.596 56.3773 344.633 55.4735 343.494 54.8476C342.355 54.2217 341.076 53.8939 339.776 53.8948C338.476 53.8956 337.197 54.225 336.059 54.8524C334.92 55.4798 333.959 56.3847 333.264 57.4832L297.014 114.769C296.275 115.936 295.864 117.28 295.822 118.66C295.78 120.04 296.109 121.406 296.776 122.616C297.442 123.825 298.421 124.833 299.61 125.535C300.799 126.237 302.155 126.607 303.536 126.606Z" fill="#F4F4F4"/>
<path d="M345.447 111.702C345.402 110.595 345.032 109.525 344.383 108.627C343.735 107.729 342.837 107.041 341.801 106.649C340.765 106.257 339.636 106.178 338.556 106.422C337.475 106.667 336.49 107.223 335.723 108.023C334.957 108.822 334.442 109.83 334.243 110.92C334.044 112.01 334.17 113.134 334.605 114.153C335.04 115.171 335.766 116.04 336.69 116.65C337.615 117.26 338.699 117.585 339.807 117.584C340.567 117.582 341.32 117.427 342.02 117.128C342.72 116.829 343.352 116.392 343.878 115.843C344.405 115.293 344.815 114.644 345.085 113.932C345.354 113.22 345.478 112.462 345.447 111.702ZM344.155 82.6411L344.465 74.1873L335.089 74.1942L335.408 82.6466L336.724 102.104L342.865 102.1L344.155 82.6411Z" fill="white"/>
<path d="M8.42358 427.219L87.6247 427.165C89.1319 427.165 90.6111 426.759 91.9081 425.992C93.2051 425.224 94.2722 424.122 94.9979 422.801C95.7237 421.481 96.0814 419.989 96.0339 418.483C95.9863 416.976 95.5352 415.51 94.7276 414.238L55.0838 351.775C54.3236 350.577 53.2729 349.591 52.0294 348.908C50.7859 348.225 49.39 347.867 47.9713 347.868C46.5526 347.869 45.1572 348.229 43.9147 348.913C42.6721 349.598 41.6228 350.585 40.8642 351.784L1.30468 414.3C0.498772 415.573 0.0495682 417.04 0.00393677 418.546C-0.041687 420.053 0.31794 421.544 1.04529 422.864C1.77264 424.184 2.84106 425.284 4.13892 426.05C5.43678 426.816 6.9165 427.22 8.42358 427.219Z" fill="#F4F4F4"/>
<path d="M54.1589 410.955C54.1589 407.318 51.5315 404.517 47.9933 404.52C44.4551 404.523 41.8347 407.326 41.8368 410.963C41.8096 411.79 41.949 412.613 42.2467 413.385C42.5444 414.157 42.9944 414.861 43.5698 415.455C44.1452 416.049 44.8343 416.522 45.5961 416.844C46.3579 417.167 47.1767 417.333 48.0039 417.332C48.8311 417.332 49.6498 417.165 50.4111 416.841C51.1724 416.518 51.8609 416.044 52.4355 415.449C53.0101 414.854 53.4591 414.15 53.7558 413.377C54.0524 412.605 54.1907 411.781 54.1624 410.955H54.1589ZM52.7488 379.239L53.0865 370.013L42.8542 370.02L43.2024 379.245L44.639 400.48L51.3442 400.474L52.7488 379.239Z" fill="white"/>
<defs>
<linearGradient id="paint0_linear_1857_104" x1="281.391" y1="466.49" x2="281.391" y2="527.748" gradientUnits="userSpaceOnUse">
<stop stop-color="#EE575C"/>
<stop offset="1" stop-color="#F67147"/>
</linearGradient>
<linearGradient id="paint1_linear_1857_104" x1="163.602" y1="499.668" x2="163.602" y2="529.656" gradientUnits="userSpaceOnUse">
<stop stop-color="#EE575C"/>
<stop offset="1" stop-color="#F67147"/>
</linearGradient>
<linearGradient id="paint2_linear_1857_104" x1="209.691" y1="82.0852" x2="209.691" y2="208.326" gradientUnits="userSpaceOnUse">
<stop stop-color="#EE575C"/>
<stop offset="1" stop-color="#F67147"/>
</linearGradient>
<linearGradient id="paint3_linear_1857_104" x1="109.755" y1="82.7627" x2="109.755" y2="226.277" gradientUnits="userSpaceOnUse">
<stop stop-color="#EE575C"/>
<stop offset="1" stop-color="#F67147"/>
</linearGradient>
<linearGradient id="paint4_linear_1857_104" x1="228.638" y1="90.1444" x2="228.638" y2="205.72" gradientUnits="userSpaceOnUse">
<stop stop-color="#EE575C"/>
<stop offset="1" stop-color="#F67147"/>
</linearGradient>
<linearGradient id="paint5_linear_1857_104" x1="218.132" y1="131.309" x2="218.132" y2="205.951" gradientUnits="userSpaceOnUse">
<stop stop-color="#E35759"/>
<stop offset="1" stop-color="#D8623F"/>
</linearGradient>
<linearGradient id="paint6_linear_1857_104" x1="247.032" y1="165.882" x2="246.922" y2="166.564" gradientUnits="userSpaceOnUse">
<stop stop-color="#E35759"/>
<stop offset="1" stop-color="#D8623F"/>
</linearGradient>
</defs>
</svg>
