<svg width="593" height="386" viewBox="0 0 593 386" fill="none" xmlns="http://www.w3.org/2000/svg">
<path d="M346.691 168.376C346.691 168.376 346.691 168.297 346.691 168.165V167.587C346.691 167.06 346.691 166.315 346.691 165.368C346.691 163.42 346.691 160.614 346.62 157.088L346.752 157.22L304.082 157.298C304.179 157.202 303.863 157.518 304.302 157.088V162.807C304.302 164.683 304.302 166.543 304.302 168.358L304.091 168.139L334.499 168.236L343.472 168.297H345.901H346.533C346.609 168.29 346.685 168.29 346.761 168.297H346.568H345.954H343.577L334.561 168.499L304.003 168.595H303.793V168.385C303.793 166.569 303.793 164.71 303.793 162.833V157.097L304.012 156.877L346.682 156.956H346.84V157.097C346.84 160.658 346.787 163.491 346.77 165.455C346.77 166.394 346.77 167.122 346.77 167.648C346.77 167.876 346.77 168.06 346.77 168.201C346.751 168.262 346.724 168.321 346.691 168.376Z" fill="#E0E0E0"/>
<path d="M428.767 50.304C428.76 50.2369 428.76 50.1693 428.767 50.1022C428.767 49.9531 428.767 49.7602 428.767 49.5234C428.767 48.9883 428.767 48.2516 428.767 47.2956C428.767 45.3485 428.724 42.5506 428.697 39.016L428.829 39.1475L386.159 39.2353C386.256 39.1388 385.94 39.4545 386.37 39.016V50.304L386.15 50.0935L416.559 50.1899L425.54 50.2513H427.969H428.601H428.829C428.762 50.2596 428.694 50.2596 428.627 50.2513H428.022H425.636L416.708 50.3127L386.15 50.4092H385.94V39.0335C386.37 38.6038 386.054 38.9107 386.159 38.8143L428.829 38.902H428.96V39.0335C428.96 42.6032 428.899 45.4274 428.881 47.3921C428.881 48.3305 428.881 49.0673 428.881 49.5848C428.881 49.8128 428.881 49.997 428.881 50.1461C428.848 50.202 428.81 50.2549 428.767 50.304Z" fill="#E0E0E0"/>
<path d="M587.01 219.369C587.002 219.302 587.002 219.234 587.01 219.167V218.589C587.01 218.062 587.01 217.317 587.01 216.37C587.01 214.422 587.01 211.616 586.939 208.081L587.071 208.213L544.401 208.3L544.621 208.081V219.369L544.41 219.159L574.818 219.255L583.791 219.317H586.22H586.852H587.08C587.08 219.317 587.018 219.317 586.878 219.317H586.273H583.896L574.967 219.378L544.41 219.474H544.191V208.125L544.41 207.915L587.08 207.993H587.159V208.125C587.159 211.695 587.106 214.519 587.089 216.492C587.089 217.431 587.089 218.159 587.089 218.685V219.238C587.065 219.283 587.039 219.327 587.01 219.369Z" fill="#E0E0E0"/>
<path d="M592.798 208.116C592.786 208.047 592.786 207.975 592.798 207.906C592.798 207.739 592.798 207.546 592.798 207.309C592.798 206.748 592.798 205.994 592.798 205.047C592.798 203.064 592.754 200.266 592.719 196.828L592.877 196.986L567.24 197.048C567.038 197.241 567.503 196.784 567.451 196.828V202.635C567.451 204.529 567.451 206.353 567.451 208.108L567.24 207.906L585.589 208.002L590.93 208.064H592.368H592.886C592.731 208.076 592.576 208.076 592.421 208.064H591.018L585.755 208.125L567.275 208.222H566.986V208.011C566.986 206.257 566.986 204.433 566.986 202.538V196.732C566.933 196.784 567.398 196.32 567.205 196.521L592.842 196.574H593V196.723C593 200.231 592.939 203.029 592.921 205.029C592.921 205.967 592.921 206.713 592.921 207.266C592.897 207.551 592.856 207.835 592.798 208.116Z" fill="#E0E0E0"/>
<path d="M189.448 346.212L179.801 350.361L180.45 293.131C180.748 286.281 177.599 283.361 175.889 281.414C160.356 263.749 137.192 276.563 136.99 294.464L136.412 345.607L127.018 345.502L127.948 292C128.018 285.974 132.702 275.52 137.429 271.774C163.566 251.067 190.308 272.459 190.054 295.087L189.448 346.212Z" fill="#F5F5F5"/>
<path d="M189.448 346.212V345.186C189.448 344.51 189.448 343.519 189.448 342.221C189.448 339.59 189.501 335.775 189.536 330.819C189.571 325.864 189.633 319.856 189.694 312.848C189.729 309.34 189.764 305.606 189.799 301.648C189.799 297.683 190.159 293.465 189.343 289.132C188.527 284.594 186.688 280.302 183.967 276.581C183.607 276.098 183.265 275.607 182.888 275.134C182.511 274.66 182.081 274.257 181.678 273.774C180.853 272.86 179.975 271.996 179.046 271.187C178.599 270.757 178.073 270.415 177.582 270.02C177.09 269.626 176.608 269.222 176.056 268.906C174.993 268.198 173.885 267.559 172.74 266.994C170.397 265.816 167.916 264.932 165.355 264.363L163.373 264.039L162.382 263.872L161.373 263.811L159.338 263.679C158.654 263.679 157.97 263.723 157.286 263.749C151.616 264.007 146.128 265.828 141.429 269.012C136.484 272.36 132.607 277.061 130.263 282.554C129.086 285.387 128.312 288.372 127.965 291.421C127.702 294.491 127.772 297.657 127.711 300.823C127.571 313.515 127.422 326.653 127.273 340.116C127.273 341.911 127.252 343.701 127.211 345.484L126.992 345.256L136.385 345.361L136.166 345.58C136.277 335.406 136.391 325.466 136.508 315.76C136.561 310.93 136.616 306.168 136.675 301.472C136.675 299.133 136.701 296.809 136.754 294.5C136.804 292.193 137.188 289.907 137.894 287.711C139.334 283.438 142.045 279.708 145.665 277.019C146.094 276.681 146.542 276.368 147.007 276.081L148.41 275.204C149.362 274.7 150.35 274.266 151.366 273.906C152.37 273.54 153.398 273.247 154.444 273.029C154.962 272.915 155.488 272.871 156.006 272.783L156.786 272.678H157.576C159.636 272.564 161.703 272.738 163.715 273.195C165.677 273.666 167.569 274.389 169.346 275.344C174.401 278.151 178.174 282.806 179.871 288.334C180.366 290.048 180.661 291.814 180.748 293.596C180.748 294.035 180.748 294.473 180.792 294.903C180.836 295.333 180.792 295.78 180.792 296.192C180.792 297.069 180.792 297.894 180.792 298.736C180.792 300.411 180.792 302.06 180.73 303.674C180.643 310.129 180.572 316.058 180.502 321.408C180.353 332.1 180.239 340.467 180.16 346.028L180.099 345.966L187.186 346.08H188.94H189.51H187.212L180.09 346.037H180.029V345.975C180.029 340.414 180.151 332.047 180.248 321.356C180.301 316.005 180.362 310.068 180.423 303.612C180.423 301.999 180.423 300.35 180.476 298.674C180.476 297.797 180.476 296.99 180.476 296.131C180.476 295.71 180.476 295.254 180.476 294.85L180.423 293.561C180.293 289.967 179.226 286.468 177.327 283.413C175.348 280.141 172.544 277.447 169.197 275.599C167.45 274.663 165.59 273.955 163.662 273.494C161.675 273.048 159.635 272.883 157.602 273.002H156.83L156.067 273.116C155.549 273.195 155.032 273.239 154.523 273.353C152.463 273.793 150.471 274.51 148.603 275.485L147.226 276.309C146.771 276.576 146.332 276.868 145.91 277.186C142.353 279.832 139.692 283.505 138.289 287.711C137.598 289.867 137.226 292.113 137.183 294.377C137.183 296.681 137.157 299.005 137.105 301.349C137.052 306.027 136.999 310.79 136.947 315.637C136.841 325.285 136.727 335.257 136.613 345.458V345.677H136.394L126.992 345.572H126.773V345.352C126.773 343.598 126.793 341.809 126.834 339.985C126.992 326.53 127.141 313.392 127.29 300.692C127.351 297.517 127.29 294.386 127.544 291.246C127.902 288.157 128.691 285.134 129.886 282.264C131.109 279.521 132.69 276.953 134.587 274.625C136.51 272.357 138.725 270.354 141.174 268.67C145.934 265.441 151.496 263.595 157.242 263.337C157.935 263.337 158.628 263.258 159.321 263.276L161.68 263.416L162.978 263.565L164.943 263.89L165.82 264.083C168.255 264.652 170.612 265.518 172.837 266.661C173.999 267.231 175.121 267.879 176.196 268.599C176.748 268.924 177.222 269.363 177.731 269.731C178.239 270.099 178.757 270.476 179.222 270.906C180.15 271.73 181.029 272.609 181.853 273.537L183.081 274.914C183.458 275.397 183.8 275.897 184.16 276.388C186.906 280.151 188.757 284.492 189.571 289.079C190.387 293.465 189.975 297.71 190.001 301.674C190.027 305.638 189.896 309.41 189.852 312.918C189.755 319.935 189.668 325.969 189.598 330.907C189.527 335.845 189.475 339.678 189.431 342.256C189.431 343.537 189.431 344.528 189.378 345.195C189.326 345.861 189.448 346.212 189.448 346.212Z" fill="#E0E0E0"/>
<path d="M116.289 312.095L201.36 313.06C202.23 313.07 203.06 313.425 203.668 314.047C204.276 314.669 204.612 315.507 204.602 316.377L203.857 382.127C203.848 382.918 203.525 383.673 202.959 384.226C202.394 384.779 201.632 385.084 200.841 385.075L115.507 384.107L116.324 312.095L116.289 312.095Z" fill="#E0E0E0"/>
<path d="M116.29 311.911L191.104 312.659C192.049 312.668 192.951 313.053 193.612 313.727C194.273 314.402 194.639 315.311 194.63 316.255L193.989 380.282C193.978 381.445 193.505 382.556 192.674 383.37C191.843 384.184 190.723 384.635 189.56 384.624L115.693 383.885C114.716 383.875 113.783 383.478 113.099 382.78C112.415 382.082 112.036 381.141 112.046 380.164L112.693 315.436C112.703 314.492 113.087 313.59 113.761 312.929C114.436 312.267 115.345 311.901 116.29 311.911Z" fill="#EBEBEB"/>
<path d="M164.276 342.291C164.292 340.946 164.037 339.611 163.527 338.366C163.016 337.121 162.261 335.991 161.305 335.044C160.35 334.096 159.213 333.351 157.964 332.851C156.715 332.351 155.378 332.108 154.032 332.135C151.444 332.212 148.984 333.274 147.153 335.105C145.322 336.936 144.26 339.397 144.183 341.984C144.142 344.179 144.824 346.326 146.124 348.094C147.423 349.863 149.268 351.155 151.375 351.773L144.665 365.56L161.987 366.078L156.865 351.808C158.967 351.242 160.827 350.007 162.164 348.29C163.501 346.573 164.243 344.467 164.276 342.291Z" fill="#E0E0E0"/>
<path d="M193.509 378.199C193.386 378.199 193.509 365.666 193.729 350.211C193.948 334.757 194.264 322.215 194.386 322.215C194.509 322.215 194.386 334.749 194.167 350.211C193.948 365.674 193.632 378.208 193.509 378.199Z" fill="#FAFAFA"/>
<path d="M175.231 314.971C175.231 315.093 164.206 315.216 150.603 315.242C136.999 315.269 125.966 315.19 125.966 315.067C125.966 314.944 136.99 314.83 150.603 314.804C164.215 314.778 175.231 314.83 175.231 314.971Z" fill="white"/>
<path d="M143.797 347.475C143.625 347.289 143.486 347.076 143.384 346.843C143.07 346.233 142.817 345.592 142.63 344.931C142.003 342.729 142.061 340.387 142.797 338.219C143.534 336.05 144.913 334.158 146.752 332.793C147.299 332.38 147.887 332.024 148.507 331.731C148.725 331.61 148.962 331.527 149.208 331.486C149.208 331.556 148.252 331.968 146.937 333.038C145.209 334.418 143.912 336.264 143.202 338.358C142.491 340.452 142.397 342.706 142.928 344.852C143.358 346.545 143.867 347.422 143.797 347.475Z" fill="white"/>
<path d="M147.744 352.281C147.682 352.387 147.095 352.132 146.428 351.72C145.761 351.308 145.279 350.887 145.34 350.782C145.402 350.676 145.998 350.931 146.665 351.343C147.331 351.755 147.744 352.176 147.744 352.281Z" fill="white"/>
<path d="M156.093 266.003C155.534 266.11 154.969 266.184 154.4 266.223C152.869 266.428 151.355 266.753 149.875 267.196C144.955 268.624 140.544 271.423 137.156 275.265C133.769 279.108 131.545 283.835 130.746 288.895C130.482 290.419 130.35 291.962 130.351 293.508C130.351 294.596 130.351 295.21 130.351 295.21C130.304 295.069 130.28 294.92 130.281 294.771C130.281 294.482 130.193 294.061 130.184 293.508C130.122 291.948 130.211 290.386 130.447 288.842C131.179 283.698 133.401 278.88 136.84 274.983C140.278 271.086 144.782 268.282 149.796 266.915C151.296 266.475 152.835 266.181 154.392 266.038C154.935 265.977 155.365 265.986 155.655 265.977C155.801 265.971 155.948 265.98 156.093 266.003Z" fill="white"/>
<path d="M129.886 302.972C129.686 302.11 129.633 301.221 129.728 300.341C129.668 299.455 129.76 298.565 130 297.71C130.265 299.457 130.226 301.238 129.886 302.972Z" fill="white"/>
<path d="M183.94 58.6625H141.271V69.9505H183.94V58.6625Z" fill="#F5F5F5"/>
<path d="M165.899 81.8436C165.899 81.8436 165.899 81.7735 165.899 81.6419V81.063C165.899 80.528 165.899 79.7825 165.899 78.8352C165.899 76.8881 165.899 74.0903 165.829 70.5556L165.96 70.6872L123.291 70.7749C123.387 70.6784 123.071 70.9854 123.51 70.5556V76.2742C123.51 78.157 123.51 80.0076 123.51 81.8261L123.299 81.6156L153.708 81.7121L162.68 81.7735H165.11H165.741C165.817 81.766 165.893 81.766 165.969 81.7735H165.776H165.162H162.785L153.857 81.8348L123.299 81.9313H123.089V81.7208C123.089 79.9024 123.089 78.0517 123.089 76.1689V70.4504L123.308 70.2311L165.978 70.3188H166.109V70.4504C166.109 74.0113 166.057 76.8443 166.039 78.8089C166.039 79.7474 166.039 80.4754 166.039 81.0016C166.039 81.2297 166.039 81.4139 166.039 81.5542C166.039 81.6945 165.908 81.8436 165.899 81.8436Z" fill="#E0E0E0"/>
<path d="M580.721 29.1927H538.051V40.4807H580.721V29.1927Z" fill="#F5F5F5"/>
<path d="M562.679 52.3739C562.673 52.3068 562.673 52.2392 562.679 52.1721V51.5933C562.679 51.0582 562.679 50.3215 562.679 49.3655C562.679 47.4184 562.679 44.6205 562.609 41.0859L562.741 41.2174L520.071 41.3052C520.168 41.2087 519.852 41.5157 520.29 41.0859V42.5155C520.29 42.9979 520.29 43.4803 520.29 43.9539V52.3739L520.08 52.1634L550.488 52.2598L559.461 52.3212H561.89H562.522H562.75H562.548H561.943H559.566L550.637 52.3826L520.08 52.4791H519.861V41.1034L520.08 40.8842L562.75 40.9719H562.881V41.1034C562.881 44.6644 562.829 47.4973 562.811 49.462C562.811 50.4004 562.811 51.1284 562.811 51.6547C562.811 51.8827 562.811 52.0669 562.811 52.216C562.811 52.3651 562.688 52.3739 562.679 52.3739Z" fill="#E0E0E0"/>
<path d="M337.376 253.601H294.706V264.889H337.376V253.601Z" fill="#F5F5F5"/>
<path d="M319.335 276.783C319.328 276.713 319.328 276.642 319.335 276.572V275.993C319.335 275.467 319.335 274.721 319.335 273.774C319.335 271.827 319.291 269.029 319.264 265.495L319.396 265.626L276.726 265.714C276.823 265.617 276.507 265.924 276.937 265.495V276.765L276.726 276.555L307.134 276.651L316.107 276.712H318.536H319.168H319.396H319.194H318.589H316.212L307.284 276.774L276.674 276.993H276.454V265.512L276.674 265.293L319.343 265.381H319.475V265.512C319.475 269.073 319.422 271.906 319.405 273.871C319.405 274.809 319.405 275.537 319.405 276.063C319.405 276.291 319.405 276.476 319.405 276.616C319.385 276.673 319.361 276.729 319.335 276.783Z" fill="#E0E0E0"/>
<path d="M57.6327 40.9806C57.6249 40.9136 57.6249 40.8459 57.6327 40.7789C57.6327 40.6298 57.6327 40.4369 57.6327 40.2C57.6327 39.665 57.6327 38.9283 57.6327 37.9723C57.6327 36.0252 57.6327 33.2273 57.5625 29.6927L57.6941 29.8242L14.9629 29.9207C15.0594 29.8242 14.7437 30.14 15.1734 29.7014V40.9806L14.9629 40.7701L45.3712 40.8666L54.3436 40.928H56.7731H57.4046H57.6327C57.5657 40.9363 57.4979 40.9363 57.431 40.928H56.8258H54.4401L45.5203 40.9894L14.9629 41.0859H14.7437V29.7102L14.9629 29.4909L57.6327 29.5786H57.7642V29.7102C57.7642 33.2799 57.7116 36.1041 57.6941 38.0687C57.6941 39.0072 57.6941 39.744 57.6941 40.2614C57.6941 40.4895 57.6941 40.6737 57.6941 40.8228C57.6778 40.8769 57.6573 40.9297 57.6327 40.9806Z" fill="#E0E0E0"/>
<path d="M483.146 366.481C483.146 366.481 483.146 366.411 483.146 366.279V365.701C483.146 365.166 483.146 364.429 483.146 363.473C483.146 361.526 483.146 358.728 483.076 355.193L483.208 355.325L440.538 355.412L440.757 355.193V360.912C440.757 362.8 440.757 364.651 440.757 366.464L440.547 366.253L470.955 366.35L479.927 366.411H482.357H482.997H483.216C483.216 366.411 483.155 366.411 483.024 366.411H482.41H480.033L471.104 366.472L440.547 366.569H440.336V366.358C440.336 364.54 440.336 362.689 440.336 360.807V355.088L440.555 354.869L483.225 354.956H483.357V355.088C483.357 358.649 483.304 361.482 483.287 363.447C483.287 364.385 483.287 365.113 483.287 365.639C483.287 365.867 483.287 366.051 483.287 366.201C483.287 366.35 483.155 366.49 483.146 366.481Z" fill="#E0E0E0"/>
<path d="M312.072 24.7723C312.072 24.7723 312.072 24.6933 312.072 24.5618V23.9829C312.072 23.4567 312.072 22.7111 312.072 21.7639C312.072 19.8168 312.072 17.0102 312.002 13.4843L312.134 13.6159L269.464 13.6948L269.683 13.4843V19.2204C269.683 21.109 269.683 22.9597 269.683 24.7723L269.473 24.5618L299.881 24.6583L308.854 24.7109H311.283H311.923C311.996 24.7037 312.07 24.7037 312.143 24.7109H311.95H311.336H308.959L300.03 24.7723L269.473 24.8688H269.262V24.6583C269.262 22.8427 269.262 20.9921 269.262 19.1064V13.5018L269.482 13.2826L312.151 13.3703H312.283V13.5018C312.283 17.0628 312.23 19.8957 312.213 21.8604C312.213 22.7989 312.213 23.5268 312.213 24.0531V24.6056C312.174 24.6678 312.127 24.7239 312.072 24.7723Z" fill="#E0E0E0"/>
<path d="M317.896 13.4843C317.89 13.4114 317.89 13.338 317.896 13.265C317.896 13.1072 317.896 12.9054 317.896 12.6686C317.896 12.1161 317.896 11.3618 317.896 10.4058C317.896 8.42358 317.844 5.63448 317.809 2.19634L317.966 2.34545L292.33 2.40684L292.54 2.19634V7.99382C292.54 9.87953 292.54 11.7126 292.54 13.4668L292.338 13.2563L310.678 13.3528L316.019 13.4141H317.458H317.975C317.821 13.4267 317.665 13.4267 317.51 13.4141H316.107L310.845 13.4668L292.365 13.5632H292.154V13.3615C292.154 11.6074 292.154 9.77428 292.154 7.88857V2.21388C292.102 2.21388 292.566 1.80166 292.373 1.99461L318.01 2.05601H318.168V2.21388C318.168 5.72219 318.098 8.51129 318.081 10.5198C318.081 11.4583 318.081 12.195 318.081 12.7476C318.081 13.3001 317.896 13.4931 317.896 13.4843Z" fill="#E0E0E0"/>
<path d="M42.8101 293.921C42.8064 293.853 42.8064 293.786 42.8101 293.719C42.8101 293.57 42.8101 293.377 42.8101 293.14C42.8101 292.605 42.8101 291.868 42.8101 290.921C42.8101 288.974 42.8101 286.167 42.7399 282.633L42.8715 282.764L0.201727 282.852L0.420996 282.633V288.36C0.420996 290.243 0.420996 292.093 0.420996 293.912L0.2105 293.701L30.6187 293.798L39.5912 293.859H42.0207H42.661H42.8803C42.8803 293.859 42.8189 293.859 42.6873 293.859H42.0733H39.6965L30.7678 293.921L0.2105 294.017H0V293.921C0 292.105 0 290.254 0 288.369V282.641C0.438538 282.212 0.122791 282.527 0.219269 282.431L42.889 282.51H43.0206V282.641C43.0206 286.211 42.968 289.035 42.9504 291.009C42.9504 291.947 42.9504 292.675 42.9504 293.201V293.754C42.8189 293.921 42.8189 293.921 42.8101 293.921Z" fill="#E0E0E0"/>
<path d="M48.6339 282.65C48.627 282.58 48.627 282.51 48.6339 282.44C48.6339 282.273 48.6339 282.08 48.6339 281.843C48.6339 281.282 48.6339 280.528 48.6339 279.58C48.6339 277.598 48.5813 274.8 48.5462 271.362L48.7041 271.52L23.0671 271.582C22.8742 271.774 23.3303 271.318 23.2776 271.362V277.168C23.2776 279.063 23.2776 280.887 23.2776 282.641L23.0759 282.44L41.4156 282.536L46.757 282.598H48.1954H48.7128C48.5581 282.61 48.4027 282.61 48.248 282.598H46.8447L41.5822 282.659L23.1022 282.755H22.8917V282.545C22.8917 280.791 22.8917 278.967 22.8917 277.072V271.266L23.111 271.047L48.6339 271.204H48.7918V271.362C48.7918 274.871 48.7216 277.668 48.7041 279.668C48.7041 280.607 48.7041 281.352 48.7041 281.905C48.7041 282.457 48.6339 282.668 48.6339 282.65Z" fill="#E0E0E0"/>
<path d="M177.178 201.117C177.17 201.05 177.17 200.983 177.178 200.915V200.337C177.178 199.802 177.178 199.065 177.178 198.118C177.178 196.162 177.134 193.364 177.108 189.829L177.24 189.961L134.57 190.049C134.666 189.952 134.351 190.268 134.78 189.829V201.1L134.57 200.889L164.978 200.986L173.951 201.047H176.38H177.012H177.24H177.038H176.433H174.047L165.127 201.1L134.57 201.196H134.351V189.706L134.57 189.487L177.24 189.575H177.371V189.706C177.371 193.276 177.319 196.1 177.301 198.074C177.301 199.003 177.301 199.74 177.301 200.258V200.819C177.275 200.924 177.234 201.025 177.178 201.117Z" fill="#E0E0E0"/>
<path d="M182.967 189.829C182.954 189.76 182.954 189.688 182.967 189.619C182.967 189.452 182.967 189.259 182.967 189.014L182.923 186.751C182.923 184.777 182.923 181.979 182.844 178.541L183.002 178.699L157.356 178.761L157.576 178.541V184.348C157.576 186.233 157.576 188.066 157.576 189.82L157.365 189.619L175.705 189.715L181.055 189.768H182.493H183.011C182.853 189.779 182.695 189.779 182.537 189.768H181.143L175.88 189.829L157.4 189.926H157.198V189.715C157.198 187.961 157.198 186.128 157.198 184.242V178.436C157.198 178.48 157.619 178.024 157.418 178.217L183.063 178.278H183.221V178.436C183.221 181.944 183.16 184.742 183.142 186.742C183.142 187.68 183.142 188.426 183.098 188.97C183.055 189.514 182.976 189.838 182.967 189.829Z" fill="#E0E0E0"/>
<path d="M492.583 94.6753L485.655 93.2368L494.425 51.0407C494.752 48.8282 494.266 46.5725 493.057 44.6907C482.015 29.4032 464.052 35.6129 461.298 48.8217L453.405 86.536L446.476 85.0888L455.325 42.6208C455.781 40.4238 456.721 38.3559 458.075 36.5673C459.43 34.7786 461.166 33.3141 463.158 32.2801C485.47 20.7816 504.196 38.6564 500.381 56.9785L492.583 94.6753Z" fill="url(#paint0_linear_1857_50)"/>
<path d="M492.583 94.6753C492.583 94.6753 492.627 94.4121 492.733 93.921C492.838 93.4298 492.978 92.6843 493.171 91.7283L494.925 83.3347C495.68 79.6948 496.592 75.248 497.653 70.082L499.407 61.82C499.951 58.8905 500.854 55.8208 500.889 52.5054C500.942 49.0347 500.204 45.5975 498.732 42.4541C498.539 42.0507 498.355 41.6297 498.153 41.2262L497.451 40.0422C496.973 39.2489 496.449 38.4845 495.881 37.753C495.601 37.3671 495.267 37.0338 494.96 36.6742C494.653 36.3146 494.355 35.9462 493.996 35.6305C493.314 34.9509 492.587 34.3179 491.82 33.736C490.264 32.5183 488.561 31.5016 486.751 30.7101L485.339 30.1838L484.541 29.9207L483.804 29.7278L482.322 29.3418C481.813 29.2278 481.304 29.1752 480.796 29.0875C476.565 28.4575 472.242 29.01 468.306 30.6838C465.181 32.0116 462.384 34.0067 460.112 36.5293C457.839 39.0519 456.146 42.041 455.15 45.2871C454.51 47.5236 454.097 49.8654 453.597 52.1984C451.65 61.5569 449.624 71.2485 447.563 81.142C447.283 82.4664 447.011 83.7732 446.739 85.0976L446.607 84.8959L453.536 86.343L453.343 86.4746C454.904 78.9756 456.439 71.6345 457.921 64.5477C458.664 60.9868 459.398 57.4784 460.123 54.0228L461.193 48.8831C461.569 47.1854 462.183 45.5495 463.017 44.0241C464.708 41.0802 467.253 38.719 470.315 37.2531C470.692 37.0864 471.051 36.8847 471.446 36.7531L472.604 36.3497C473.38 36.1164 474.171 35.9376 474.972 35.8147C475.767 35.6938 476.57 35.6293 477.375 35.6217C477.77 35.6217 478.173 35.6217 478.568 35.6743H479.155L479.743 35.7708C481.287 35.9812 482.793 36.4094 484.216 37.0426C485.592 37.676 486.88 38.4836 488.049 39.4458C490.285 41.3333 491.987 43.7737 492.987 46.5238C493.952 49.0976 494.234 51.8779 493.803 54.5929L493.645 55.5664C493.583 55.8822 493.513 56.1979 493.452 56.5137L493.057 58.3906C492.794 59.6273 492.54 60.8376 492.294 62.0305C491.294 66.7842 490.373 71.1608 489.549 75.0989C487.882 82.9926 486.584 89.1321 485.725 93.2456L485.681 93.1842L490.943 94.2981L492.224 94.5788L492.645 94.6753L492.233 94.5963L490.961 94.3507L485.698 93.2807V93.2281L489.435 75.0726C490.25 71.1258 491.189 66.7491 492.145 61.9866C492.391 60.8026 492.645 59.5834 492.899 58.3468C493.022 57.7328 493.154 57.1013 493.285 56.4786C493.355 56.1628 493.417 55.8471 493.487 55.5226C493.557 55.198 493.583 54.8823 493.636 54.5666C494.056 51.8918 493.775 49.1538 492.82 46.6202C491.831 43.9154 490.149 41.5172 487.944 39.665C486.787 38.7193 485.514 37.9263 484.155 37.3057C482.758 36.6899 481.282 36.2708 479.769 36.0602L479.191 35.9725H478.603C478.217 35.9725 477.831 35.9199 477.436 35.9725C475.849 35.9904 474.272 36.2326 472.753 36.6917L471.613 37.0952C471.235 37.2372 470.866 37.4012 470.507 37.5864C467.499 39.0245 465.002 41.3472 463.351 44.2434C462.539 45.7378 461.948 47.342 461.596 49.0059C461.246 50.7074 460.889 52.4206 460.526 54.1456C459.807 57.6012 459.076 61.1095 458.334 64.6705L453.764 86.5974V86.764H453.597L446.669 85.3169H446.511V85.1502C446.783 83.8434 447.054 82.519 447.335 81.1946C449.405 71.2749 451.422 61.5832 453.378 52.2511C453.878 49.9093 454.255 47.585 454.939 45.3046C455.652 43.0756 456.67 40.9562 457.965 39.0072C460.532 35.2381 464.131 32.29 468.332 30.5171C472.32 28.8268 476.697 28.2713 480.98 28.9121C481.497 28.9998 482.015 29.0612 482.523 29.1664L484.278 29.6225L485.216 29.9207L486.619 30.447L487.268 30.7189C488.984 31.4965 490.601 32.4771 492.084 33.6395C492.852 34.2351 493.585 34.8766 494.276 35.5603C494.553 35.8614 494.816 36.1745 495.066 36.4988C495.373 36.8672 495.715 37.2004 495.987 37.5864C496.564 38.3288 497.097 39.105 497.583 39.9106L498.284 41.1034C498.495 41.5157 498.67 41.9805 498.872 42.3489C500.351 45.5301 501.086 49.0065 501.021 52.5142C501.021 55.8646 500.065 58.9432 499.512 61.8814C498.96 64.8196 498.311 67.5824 497.758 70.1697C496.671 75.3357 495.723 79.8176 494.96 83.4224C494.197 87.0271 493.592 89.8689 493.206 91.7809L492.741 93.9473C492.645 94.4384 492.583 94.6753 492.583 94.6753Z" fill="#263238"/>
<path d="M443.486 58.8182L505.385 71.7158C506.236 71.8932 506.983 72.4017 507.459 73.1295C507.936 73.8572 508.104 74.7445 507.927 75.5962L498.148 122.529C497.986 123.303 497.524 123.982 496.862 124.415C496.201 124.849 495.394 125.002 494.62 124.84L432.429 111.882L443.486 58.8182Z" fill="#455A64"/>
<g opacity="0.3">
<path d="M443.518 58.8681L505.091 71.6977C506.029 71.8932 506.851 72.4533 507.376 73.255C507.902 74.0567 508.087 75.0341 507.891 75.9723L498.248 122.253C498.069 123.114 497.555 123.868 496.819 124.35C496.084 124.832 495.187 125.001 494.326 124.822L432.461 111.932L443.518 58.8681Z" fill="black"/>
</g>
<path d="M444.013 58.93L497.403 70.0546C498.328 70.2472 499.138 70.7992 499.655 71.5892C500.173 72.3792 500.355 73.3424 500.163 74.267L490.722 119.577C490.485 120.716 489.805 121.714 488.832 122.351C487.859 122.988 486.673 123.213 485.534 122.976L433.106 112.052C432.632 111.953 432.183 111.762 431.783 111.49C431.383 111.217 431.041 110.869 430.776 110.464C430.511 110.059 430.328 109.606 430.238 109.131C430.148 108.656 430.152 108.167 430.251 107.694L439.835 61.6968C440.026 60.7782 440.573 59.9722 441.355 59.4541C442.137 58.936 443.093 58.7476 444.013 58.93Z" fill="url(#paint1_linear_1857_50)"/>
<g opacity="0.3">
<path d="M474.551 88.1235C474.758 87.1317 474.763 86.1085 474.568 85.1144C474.372 84.1204 473.978 83.1758 473.411 82.3366C472.843 81.4974 472.113 80.7807 471.263 80.229C470.413 79.6772 469.461 79.3017 468.464 79.1247C466.539 78.8075 464.566 79.236 462.946 80.323C461.326 81.4099 460.182 83.0735 459.746 84.9748C459.4 86.5918 459.595 88.2776 460.3 89.7733C461.005 91.269 462.181 92.492 463.649 93.2544L456.676 102.472L469.402 105.367L467.648 94.0964C469.293 93.9918 470.859 93.3513 472.106 92.2726C473.352 91.1939 474.211 89.7366 474.551 88.1235Z" fill="black"/>
</g>
<path d="M490.935 118.9C490.847 118.9 492.741 109.638 495.162 98.2537C497.583 86.8693 499.626 77.6424 499.714 77.66C499.802 77.6775 497.907 86.9307 495.487 98.3327C493.066 109.735 491.022 118.918 490.935 118.9Z" fill="#263238"/>
<path d="M486.619 69.5119C486.619 69.5996 478.436 68.0823 468.385 66.1264C458.334 64.1705 450.186 62.5129 450.203 62.4252C450.221 62.3375 458.386 63.846 468.446 65.8019C478.507 67.7578 486.637 69.3891 486.619 69.5119Z" fill="white"/>
<path d="M458.667 88.9743C458.667 88.9743 458.562 88.7988 458.457 88.448C458.306 87.9545 458.212 87.4455 458.176 86.9307C458.037 85.212 458.419 83.4913 459.272 81.9927C460.14 80.5036 461.431 79.3066 462.982 78.5546C463.449 78.3312 463.937 78.1549 464.438 78.0284C464.62 77.9718 464.809 77.9451 465 77.9494C465 78.0108 464.219 78.1687 463.087 78.7651C461.616 79.5402 460.395 80.7178 459.567 82.1605C458.74 83.6032 458.339 85.2515 458.413 86.9131C458.457 88.1937 458.728 88.9567 458.667 88.9743Z" fill="white"/>
<path d="M460.86 93.0702C460.798 93.1404 460.395 92.8685 459.983 92.465C459.57 92.0616 459.255 91.6844 459.316 91.588C459.377 91.4915 459.781 91.7985 460.193 92.1931C460.605 92.5878 460.921 93.0702 460.86 93.0702Z" fill="white"/>
<path d="M479.585 30.5698C479.585 30.5698 479.129 30.5698 478.305 30.4821C477.135 30.409 475.962 30.4295 474.796 30.5434C470.958 30.8904 467.298 32.3201 464.24 34.6662C461.183 37.0124 458.855 40.1784 457.527 43.7961C457.12 44.8858 456.8 46.0061 456.571 47.1465C456.413 47.9534 456.343 48.4095 456.316 48.4095C456.303 48.2988 456.303 48.1869 456.316 48.0762C456.316 47.8569 456.316 47.5324 456.43 47.1202C456.617 45.9613 456.911 44.8221 457.307 43.7171C458.597 40.0198 460.94 36.7803 464.047 34.3976C467.155 32.0148 470.891 30.5928 474.796 30.3066C475.965 30.2125 477.14 30.2301 478.305 30.3593C478.717 30.3593 479.033 30.4645 479.252 30.4908C479.366 30.5011 479.478 30.5277 479.585 30.5698Z" fill="white"/>
<path d="M454.852 54.0754C454.83 53.4104 454.919 52.7465 455.115 52.1108C455.202 51.4544 455.398 50.8172 455.694 50.225C455.721 50.8867 455.635 51.5482 455.439 52.1809C455.353 52.8412 455.154 53.4819 454.852 54.0754Z" fill="white"/>
<path d="M19.1816 336.547L3.42053 357.947L29.9609 377.699C31.715 375.068 21.7427 359.736 21.7427 359.736L32.4079 346.44L19.1816 336.547Z" fill="#465867"/>
<path d="M14.4278 352.492C14.1157 352.378 13.7725 352.384 13.4647 352.509C13.1569 352.634 12.9063 352.868 12.7613 353.167C12.6381 353.476 12.6375 353.821 12.7597 354.131C12.882 354.441 13.1178 354.692 13.4191 354.834C13.7498 354.95 14.1119 354.94 14.4357 354.806C14.7595 354.671 15.0222 354.422 15.1733 354.106C15.2702 353.77 15.2329 353.409 15.0693 353.1C14.9058 352.791 14.6286 352.557 14.2962 352.448" fill="white"/>
<path d="M3.38538 358L5.06059 355.702L29.8555 375.664C29.8555 375.664 30.6449 377.068 29.8555 377.795L3.38538 358Z" fill="#263238"/>
<path d="M22.3216 359.929C22.2251 360.061 21.5322 359.64 20.5674 359.579C19.6026 359.517 18.8747 359.815 18.8133 359.675C18.7519 359.535 19.4886 358.93 20.6288 359.017C21.769 359.105 22.3917 359.833 22.3216 359.929Z" fill="#263238"/>
<path d="M24.2072 363.157C24.1371 363.306 23.4179 363.104 22.5671 363.324C21.7163 363.543 21.1638 364.034 21.0322 363.929C20.9007 363.824 21.3743 363.052 22.4355 362.78C23.4968 362.508 24.2949 363.034 24.2072 363.157Z" fill="#263238"/>
<path d="M23.3039 367.665C23.1635 367.604 23.4705 366.788 24.33 366.358C25.1896 365.929 26.0053 366.069 25.9789 366.218C25.9526 366.367 25.2948 366.464 24.6019 366.858C23.909 367.253 23.4442 367.744 23.3039 367.665Z" fill="#263238"/>
<path d="M24.3738 356.632C24.2247 356.711 23.7686 356.088 22.9968 355.597C22.225 355.106 21.4883 354.904 21.497 354.72C21.5058 354.535 22.3741 354.5 23.3038 355.097C24.2335 355.693 24.5142 356.579 24.3738 356.632Z" fill="#263238"/>
<path d="M83.3485 246.962C83.8221 249.646 84.5764 272.476 85.0588 284.518C85.5412 296.561 84.3396 302.481 82.9626 305.182C81.5856 307.884 29.6539 346.151 25.6983 355.316L12.5421 344.712C12.5421 344.712 31.8378 310.076 40.0648 303.779C48.2917 297.482 64.123 291.702 64.123 291.702L59.6236 225.754L81.1909 224.579L83.3485 246.962Z" fill="#263238"/>
<path d="M35.083 357.71L34.855 384.26L67.9295 384.716C67.7804 381.558 50.7564 374.971 50.7564 374.971L51.6334 357.947L35.083 357.71Z" fill="#465867"/>
<path d="M40.5471 373.436C40.228 373.529 39.9541 373.735 39.7777 374.017C39.6013 374.298 39.5349 374.635 39.5911 374.962C39.6725 375.285 39.8739 375.565 40.1542 375.744C40.4345 375.923 40.7727 375.989 41.0997 375.927C41.4367 375.827 41.725 375.606 41.9095 375.307C42.0939 375.008 42.1616 374.651 42.0996 374.305C41.982 373.977 41.7415 373.707 41.4289 373.553C41.1162 373.399 40.756 373.373 40.4244 373.48" fill="white"/>
<path d="M34.8461 384.356V381.505L66.6401 383.154C66.6401 383.154 68.096 383.83 67.9118 384.865L34.8461 384.356Z" fill="#263238"/>
<path d="M51.265 374.849C51.265 375.015 50.4494 375.077 49.6512 375.585C48.8531 376.094 48.4145 376.761 48.2654 376.699C48.1163 376.638 48.3707 375.699 49.353 375.103C50.3353 374.506 51.3352 374.699 51.265 374.849Z" fill="#263238"/>
<path d="M54.7732 376.366C54.7732 376.524 54.0979 376.787 53.5453 377.462C52.9928 378.138 52.8173 378.865 52.6682 378.848C52.5191 378.83 52.4139 377.927 53.1243 377.094C53.8348 376.261 54.7732 376.182 54.7732 376.366Z" fill="#263238"/>
<path d="M56.659 380.514C56.5099 380.514 56.2994 379.734 56.7204 378.857C57.1414 377.98 57.9132 377.638 57.9746 377.769C58.036 377.901 57.5711 378.374 57.2291 379.102C56.887 379.83 56.8169 380.497 56.659 380.514Z" fill="#263238"/>
<path d="M51.0545 370.946C50.9843 371.095 50.2476 370.858 49.3004 370.946C48.3531 371.033 47.669 371.27 47.5462 371.13C47.4234 370.989 48.1514 370.428 49.2302 370.384C50.309 370.34 51.1334 370.823 51.0545 370.946Z" fill="#263238"/>
<path d="M85.7341 221.851C85.7341 223.404 88.2513 262.706 75.4021 291.14C75.4021 291.14 70.9554 300.034 70.1397 303.919C69.324 307.805 52.7034 372.252 52.7034 372.252L33.4954 371.551C33.4954 371.551 30.4257 339.266 33.4954 320.575C36.5652 301.885 42.2662 304.077 42.2662 292.009C42.2662 279.94 39.3982 254.917 39.3982 254.917C39.3982 254.917 35.2057 248.085 33.7761 234.832C32.6096 224.07 37.6791 212.537 37.6791 212.537L42.6872 203.67L85.0588 201.451L85.7341 221.851Z" fill="#263238"/>
<path d="M85.7341 221.851C85.7341 221.851 85.7341 221.395 85.7341 220.509C85.7341 219.624 85.6814 218.308 85.6463 216.58C85.5674 213.116 85.4358 208.011 85.278 201.415V201.319H85.1727L42.8012 203.477H42.7135L42.6608 203.556C41.1084 206.31 39.3981 209.318 37.644 212.423C36.3393 215.57 35.3207 218.828 34.6005 222.158C33.8048 225.664 33.4483 229.256 33.5392 232.85C33.8062 236.603 34.3931 240.327 35.2934 243.98C36.1619 247.816 37.5271 251.522 39.3543 255.005V254.917C40.0822 261.46 40.7576 268.24 41.3277 275.221C41.6083 278.73 41.8539 282.238 42.0293 285.843C42.117 287.597 42.1872 289.439 42.196 291.254C42.196 292.131 42.196 293.07 42.1434 293.973C42.0809 294.879 41.9697 295.781 41.8101 296.675C41.451 298.475 40.8149 300.209 39.9244 301.814C39.0473 303.455 38.1702 305.077 37.2931 306.787C35.7047 310.258 34.5471 313.911 33.8462 317.663C32.3201 325.206 32.0131 333.047 31.9254 340.95C31.9254 351.378 32.4166 361.622 33.2761 371.524V371.735H33.4778L52.6858 372.437H52.87L52.9139 372.252C58.4833 350.668 63.6756 330.495 68.2539 312.357L69.9116 305.647C70.201 304.533 70.3852 303.428 70.7273 302.376C71.0693 301.323 71.4552 300.28 71.8587 299.262C72.6832 297.227 73.6129 295.254 74.4899 293.333L75.174 291.903C75.417 291.436 75.6337 290.956 75.8231 290.465C76.2178 289.491 76.6125 288.535 77.0071 287.579C79.7348 280.506 81.7646 273.182 83.0677 265.714C84.9461 255.074 85.9144 244.294 85.9621 233.49C86.0147 225.93 85.7077 221.825 85.7077 221.825C85.7077 221.825 85.7077 222.079 85.7077 222.579C85.7077 223.079 85.7077 223.842 85.7604 224.825C85.813 226.798 85.8481 229.71 85.7604 233.49C85.6792 244.285 84.7023 255.054 82.8397 265.688C81.5064 273.132 79.4502 280.429 76.7002 287.474L75.5249 290.342C75.3319 290.833 75.1127 291.298 74.8758 291.772C74.639 292.245 74.411 292.728 74.1829 293.21C73.3059 295.131 72.3762 297.104 71.5517 299.148C71.1395 300.174 70.7448 301.218 70.4028 302.288C70.0607 303.358 69.859 304.489 69.5783 305.577C69.0257 307.787 68.4732 310.015 67.9031 312.287C63.2458 330.407 58.0623 350.58 52.5104 372.165L52.7384 371.998L33.5305 371.288L33.7585 371.498C32.8814 361.613 32.3727 351.378 32.4078 340.967C32.4955 333.073 32.8025 325.267 34.3198 317.777C35.0186 314.06 36.1642 310.44 37.7317 306.998C38.521 305.305 39.4858 303.7 40.3629 302.034C41.2475 300.385 41.8746 298.61 42.2223 296.771C42.3886 295.857 42.5028 294.935 42.5644 294.008C42.5644 293.131 42.6521 292.167 42.617 291.263C42.617 289.439 42.538 287.623 42.4503 285.825C42.2749 282.229 42.0206 278.686 41.7311 275.195C41.1464 268.179 40.4828 261.405 39.7402 254.873V254.821C37.9124 251.383 36.5413 247.72 35.6618 243.927C34.7665 240.3 34.1797 236.603 33.9076 232.876C33.8132 229.315 34.1608 225.756 34.9426 222.281C35.6493 218.984 36.6442 215.756 37.9158 212.633L42.9152 203.757L42.7749 203.845L85.1464 201.556L85.0324 201.459C85.2429 208.046 85.4008 213.151 85.506 216.615C85.5674 218.369 85.6113 219.65 85.6463 220.544C85.6814 221.439 85.7341 221.851 85.7341 221.851Z" fill="#465867"/>
<path d="M72.4103 141.386C72.4103 141.386 61.0084 139.369 62.0696 154.043C62.7362 162.813 65.3148 177.864 66.7444 187.468C67.2356 190.792 68.3232 196.739 72.7173 200.229L104.204 222.016L114.142 210.132L86.0226 183.354L81.6372 156.867L72.4103 141.386Z" fill="url(#paint2_linear_1857_50)"/>
<path d="M73.2972 88.4831C75.1045 89.9384 76.5344 91.8079 77.4657 93.9331C78.397 96.0584 78.8024 98.3768 78.6474 100.692C78.472 102.937 77.8492 105.49 79.3139 107.2C80.7787 108.91 83.5853 108.849 84.9711 110.585C86.5937 112.638 85.2342 115.69 85.8482 118.242C86.1611 119.434 86.8879 120.476 87.8986 121.182C88.9094 121.887 90.138 122.21 91.365 122.093C88.4865 124.448 85.015 125.965 81.3312 126.478L78.4544 122.891C79.5244 124.154 79.235 126.162 78.2088 127.452C77.0941 128.652 75.6566 129.504 74.069 129.907C70.2905 131.07 66.2947 131.345 62.3927 130.71C58.4907 130.076 54.7877 128.55 51.572 126.25" fill="#263238"/>
<path d="M31.1711 108.279C31.7324 106.525 32.6797 104.972 33.0568 103.209C33.8637 99.4115 32.0131 95.1314 33.8549 91.7108C35.1706 89.2813 37.9597 88.0884 40.6084 87.2728C43.2572 86.4571 46.0814 85.773 48.0548 83.8346C49.4932 82.4138 50.3177 80.4491 51.7561 79.0282C53.8084 76.9934 56.8431 76.3005 59.7199 76.1251C62.6905 75.838 65.6848 76.3245 68.4117 77.5372C69.7658 78.155 70.9556 79.0826 71.885 80.2451C72.8144 81.4076 73.4574 82.7724 73.7619 84.2293C73.99 85.6502 73.8145 87.15 74.2706 88.527C74.7618 90.0356 75.9458 91.2108 76.6826 92.6229C77.4205 94.1394 77.6339 95.858 77.2895 97.5089C76.945 99.1598 76.0621 100.65 74.7793 101.745L54.4487 128.004C50.1773 129.618 39.8278 127.671 36.53 124.496C33.2322 121.321 29.759 112.62 31.1711 108.279Z" fill="#263238"/>
<path d="M74.2443 98.4116C73.3672 92.4475 68.8678 85.4046 62.9476 86.4922L44.6693 92.6317C42.9151 92.965 44.1606 95.9032 44.336 97.7187L48.3092 138.941C48.3092 138.941 45.8358 140.695 44.9587 140.362C44.9088 140.345 44.8547 140.343 44.8038 140.358C44.753 140.373 44.7081 140.403 44.6753 140.445C44.6425 140.486 44.6234 140.537 44.6208 140.59C44.6181 140.642 44.632 140.695 44.6605 140.739C46.8795 143.941 57.2203 157.86 67.9294 153.589C70.315 152.632 67.675 145.116 67.9294 142.336L67.6136 135.223C67.3768 131.591 67.2628 130.1 67.2628 130.135C67.2628 130.171 74.8232 128.276 75.6389 118.163C76.0511 113.155 75.174 105.034 74.2443 98.4116Z" fill="#FFBF9D"/>
<path d="M67.2629 130.153C62.5661 130.584 57.8417 129.704 53.6156 127.609C53.6156 127.609 57.5186 134.363 67.4383 132.661L67.2629 130.153Z" fill="#FF9A6C"/>
<path d="M40.626 94.0701C41.5031 92.6492 43.2046 91.9213 44.7833 91.3161C51.6015 88.6834 58.7092 86.8726 65.9559 85.9221C66.833 87.4043 66.0261 89.4304 64.6666 90.5092C63.3072 91.588 61.553 92.0177 59.9304 92.6229C58.3078 93.2281 56.6326 94.1753 55.9573 95.7804C55.2819 97.3854 55.852 99.4992 55.2205 101.236C54.1417 104.235 49.9581 105.2 48.9144 108.191C48.1074 110.463 49.4231 112.875 49.7914 115.26C49.9599 116.471 49.8681 117.704 49.5223 118.876C49.1765 120.049 48.5845 121.134 47.786 122.06C46.9874 122.985 46.0007 123.73 44.8915 124.244C43.7823 124.757 42.5763 125.029 41.354 125.04C40.8628 116.45 40.3687 107.867 39.8717 99.2887C39.7226 97.4995 39.6524 95.5699 40.626 94.0701Z" fill="#263238"/>
<path d="M23.3302 115.76C24.6896 114.541 26.3911 113.489 26.9262 111.752C27.7155 109.217 25.6807 106.244 26.9963 103.937C28.1892 101.832 31.7062 101.946 32.8201 99.7974C33.6972 98.1134 32.6886 96.6312 33.0131 95.1577C33.3376 93.6842 35.4426 92.3949 36.9336 92.5703L48.6338 109.559C49.7214 115.26 50.8177 118.33 49.5986 121.628C48.7922 123.403 48.1834 125.262 47.783 127.171C47.5199 129.101 48.0198 131.284 49.5898 132.433C42.5732 132.986 36.0127 129.32 29.9433 125.768L23.5494 122.014C22.8495 121.679 22.246 121.172 21.7953 120.54C20.8393 118.979 21.9795 116.971 23.3302 115.76Z" fill="#263238"/>
<path d="M29.7941 124.04C30.0389 124.118 30.292 124.169 30.5484 124.189C31.28 124.259 32.0183 124.205 32.7323 124.031C33.872 123.758 34.921 123.193 35.7757 122.391C36.9048 121.304 37.6131 119.853 37.7755 118.295C37.8809 117.391 37.8033 116.475 37.5474 115.602C37.2329 114.672 36.7964 113.787 36.2493 112.971C35.6693 112.143 35.2169 111.232 34.9074 110.27C34.743 109.778 34.6916 109.255 34.7569 108.74C34.8222 108.225 35.0025 107.732 35.2846 107.296C35.9161 106.419 37.1001 106.235 38.2052 105.797C38.8021 105.582 39.3213 105.194 39.6963 104.683C40.0415 104.136 40.21 103.496 40.1787 102.85C40.027 101.611 39.7597 100.39 39.3805 99.201C39.2459 98.624 39.2459 98.0238 39.3805 97.4468C39.535 96.865 39.8928 96.3578 40.3891 96.0172C41.4564 95.4019 42.6656 95.0754 43.8975 95.07C45.1724 95.0278 46.4158 94.6627 47.511 94.0087C48.5768 93.359 49.4419 92.4271 50.0107 91.3161C50.4775 90.2493 50.7735 89.1157 50.8878 87.9569C51.0094 86.8841 51.2386 85.8263 51.5719 84.7994C51.9413 83.8655 52.5031 83.0198 53.2208 82.3173C54.5445 81.0611 56.2535 80.2885 58.071 80.1246C59.5864 79.995 61.1074 80.2992 62.4564 81.0016C63.471 81.5208 64.3856 82.2157 65.1578 83.054C65.8031 83.7857 66.3622 84.5891 66.8242 85.4484C66.8242 85.4484 66.8242 85.387 66.7628 85.2642C66.6908 85.0901 66.6089 84.9202 66.5173 84.7555C66.1824 84.1188 65.7731 83.5241 65.2981 82.9838C64.5266 82.1118 63.6059 81.3842 62.5792 80.835C61.216 80.0857 59.667 79.7418 58.1149 79.8439C56.2101 79.9834 54.4111 80.773 53.019 82.0805C52.2521 82.8213 51.6537 83.7187 51.2649 84.7117C50.9172 85.7576 50.6762 86.8361 50.5457 87.9306C50.424 89.0513 50.1281 90.1462 49.6686 91.1757C49.1338 92.211 48.3273 93.0811 47.3356 93.6929C46.2906 94.3059 45.1084 94.6467 43.8975 94.684C42.5777 94.6812 41.2813 95.0326 40.1436 95.7014C39.5744 96.0887 39.1634 96.6677 38.9858 97.3328C38.8321 97.9816 38.8321 98.6574 38.9858 99.3062C39.3573 100.473 39.6215 101.67 39.7752 102.885C39.8114 103.449 39.6703 104.01 39.3717 104.49C39.0329 104.935 38.5732 105.273 38.0474 105.463C37.5299 105.683 36.9686 105.832 36.4248 106.06C35.8585 106.273 35.3592 106.634 34.9776 107.103C34.6678 107.588 34.4694 108.135 34.3966 108.705C34.3238 109.275 34.3784 109.855 34.5566 110.401C34.885 111.395 35.3579 112.335 35.9599 113.19C36.4941 113.966 36.9219 114.81 37.2317 115.699C37.4802 116.528 37.5636 117.398 37.4773 118.26C37.3335 119.76 36.6695 121.162 35.6003 122.224C34.7819 123.017 33.7729 123.585 32.6709 123.873C31.7324 124.118 30.7546 124.175 29.7941 124.04Z" fill="#465867"/>
<path d="M20.4444 111.962C20.3297 112.135 20.252 112.329 20.2164 112.533C20.0997 113.134 20.2057 113.758 20.5146 114.287C20.7286 114.665 21.0292 114.986 21.3916 115.225C21.8435 115.499 22.3635 115.638 22.8914 115.629C23.5331 115.615 24.1586 115.425 24.6998 115.08C25.2411 114.735 25.6774 114.248 25.9612 113.673C26.2948 113.012 26.4662 112.282 26.4611 111.541C26.44 110.746 26.2735 109.961 25.97 109.226C25.4174 107.709 24.4 106.226 24.3825 104.455C24.3493 104.018 24.4045 103.58 24.5446 103.166C24.6848 102.751 24.907 102.369 25.1982 102.043C25.9093 101.456 26.823 101.172 27.7417 101.253C28.7639 101.328 29.7914 101.221 30.7764 100.938C31.2925 100.728 31.7286 100.359 32.0218 99.8851C32.3041 99.4142 32.4807 98.8874 32.5393 98.3415C32.5898 97.294 32.5043 96.2445 32.2849 95.2191C32.1279 94.2566 32.1848 93.2715 32.4516 92.3335C32.9487 90.543 34.1132 89.0112 35.7055 88.0534C37.217 87.2835 38.8949 86.8979 40.5908 86.9307C42.0981 86.9341 43.5962 86.6973 45.0289 86.229C46.1937 85.8016 47.2612 85.1456 48.1688 84.2995C48.8638 83.6574 49.4555 82.9119 49.9229 82.0892C50.3344 81.4069 50.6168 80.6547 50.7562 79.8702C50.495 80.6108 50.1693 81.3269 49.7826 82.0103C48.6776 83.8544 46.9756 85.2656 44.9587 86.0098C43.538 86.4444 42.0589 86.6574 40.5733 86.6413C38.828 86.5921 37.0979 86.9779 35.5389 87.7639C33.8645 88.7458 32.6283 90.3302 32.0832 92.1932C31.8025 93.1824 31.7397 94.2207 31.899 95.2366C32.1043 96.2285 32.1897 97.2415 32.1534 98.2538C32.1326 98.735 31.9802 99.2013 31.7126 99.6019C31.445 100.002 31.0727 100.322 30.636 100.525C29.6988 100.791 28.7219 100.889 27.7505 100.815C26.7332 100.726 25.7218 101.041 24.935 101.692C24.6138 102.058 24.3703 102.485 24.2195 102.948C24.0688 103.411 24.0138 103.9 24.058 104.385C24.0967 105.295 24.3143 106.189 24.6982 107.016C25.0403 107.805 25.4174 108.542 25.7069 109.279C26.0012 109.977 26.1676 110.723 26.198 111.48C26.21 112.172 26.0598 112.857 25.7595 113.48C25.505 114.017 25.108 114.475 24.6116 114.803C24.1152 115.131 23.5385 115.316 22.9441 115.339C22.4565 115.357 21.9737 115.238 21.5495 114.997C21.1864 114.785 20.8843 114.483 20.6724 114.12C20.365 113.632 20.2378 113.052 20.3128 112.48C20.3567 112.164 20.4707 111.971 20.4444 111.962Z" fill="#263238"/>
<path d="M94.3205 116.146C94.5291 116.739 94.5291 117.386 94.3205 117.979C94.2048 118.32 94.0137 118.63 93.7617 118.886C93.5096 119.143 93.203 119.34 92.8646 119.461C92.4133 119.595 91.9339 119.599 91.4801 119.475C91.0262 119.352 90.6158 119.104 90.2947 118.76C89.9264 118.355 89.7122 117.833 89.6896 117.286C89.6727 116.69 89.7648 116.095 89.9614 115.532C90.3298 114.348 91.0929 113.059 90.9789 111.506C90.9235 110.719 90.7045 109.952 90.336 109.255C89.9676 108.557 89.4576 107.944 88.8388 107.454C88.1908 106.936 87.4495 106.546 86.6549 106.305C85.8432 106.08 85.0062 105.96 84.164 105.946C83.3479 105.939 82.5343 105.854 81.7345 105.691C80.9879 105.537 80.3198 105.124 79.8488 104.525C79.4316 103.91 79.1974 103.189 79.1734 102.446C79.1344 101.722 79.1934 100.997 79.3488 100.289C79.7338 98.9529 79.946 97.5735 79.9803 96.1839C79.9097 94.9501 79.473 93.7653 78.7261 92.7808C78.0945 91.9995 77.3207 91.3448 76.4457 90.8512C75.8064 90.4729 75.1939 90.0509 74.6126 89.5882C74.1359 89.1801 73.7479 88.6786 73.4724 88.1148C73.4724 88.1148 73.4724 88.1148 73.4724 88.2376C73.507 88.3562 73.5541 88.4709 73.6127 88.5796C73.8315 89.0059 74.1291 89.3869 74.4898 89.7023C75.0583 90.1972 75.6654 90.6459 76.3054 91.0442C77.1421 91.5419 77.8796 92.1902 78.4805 92.9562C79.1757 93.9 79.5728 95.0302 79.6207 96.2014C79.5687 97.5596 79.3477 98.906 78.9629 100.21C78.7932 100.951 78.7254 101.713 78.7612 102.472C78.7939 103.291 79.0552 104.084 79.5155 104.762C80.0383 105.438 80.7842 105.908 81.6205 106.086C82.4433 106.255 83.2802 106.346 84.1201 106.358C84.9319 106.369 85.7392 106.481 86.5233 106.691C87.2675 106.923 87.9631 107.288 88.5757 107.77C89.1521 108.225 89.6282 108.793 89.9739 109.441C90.3196 110.089 90.5274 110.801 90.5842 111.533C90.707 112.945 90.0053 114.164 89.6194 115.436C89.4167 116.046 89.3275 116.688 89.3563 117.33C89.3944 117.943 89.6458 118.523 90.0667 118.97C90.427 119.348 90.8862 119.616 91.3918 119.745C91.8974 119.874 92.4291 119.857 92.926 119.698C93.2889 119.557 93.615 119.336 93.8795 119.05C94.1439 118.764 94.3398 118.422 94.4521 118.049C94.6111 117.592 94.6355 117.099 94.5222 116.629C94.4841 116.457 94.4158 116.294 94.3205 116.146Z" fill="#263238"/>
<path d="M85.7471 185.181V175.48C86.8347 170.034 86.3172 163.578 83.7825 158.605C81.9436 155.4 79.9109 152.31 77.6956 149.352L68.0477 136.819C62.7326 140.687 54.4092 137.889 47.2698 135.293C47.2698 135.293 40.2532 139.196 36.9378 142.862C33.4909 146.721 45.2788 195.004 45.2788 195.004C39.9374 205.687 33.0436 215.177 31.9999 224.912L87.7819 227.061L85.4138 201.485L85.7471 185.181Z" fill="url(#paint3_linear_1857_50)"/>
<path d="M85.1639 201.424C85.1085 201.062 85.0938 200.694 85.1201 200.328C85.1201 199.53 85.1201 198.574 85.1201 197.355C85.1639 194.723 85.2166 191.329 85.278 187.549C85.3393 183.769 85.4534 180.252 85.5762 177.743C85.6375 176.489 85.699 175.472 85.7516 174.77C85.7577 174.406 85.8047 174.044 85.8919 173.691C85.9274 174.053 85.9274 174.417 85.8919 174.779C85.8919 175.577 85.8919 176.533 85.8919 177.752C85.848 180.383 85.7867 183.777 85.7253 187.558C85.6639 191.338 85.5586 194.855 85.4358 197.363C85.3744 198.618 85.313 199.635 85.2516 200.337C85.2654 200.701 85.2359 201.066 85.1639 201.424Z" fill="#263238"/>
<path d="M110.643 210.248C110.643 210.248 116.081 210.546 119.414 212.651C122.747 214.756 128.185 218.036 130.421 222.097C131.447 223.965 128.527 224.36 127.079 223.281C125.632 222.202 123.431 220.15 122.334 219.904L121.238 219.65C122.239 221.915 123.354 224.128 124.58 226.281C125.711 228.035 126.693 230.947 123.29 231.078C123.29 231.078 121.001 234.06 118.686 231.85C118.686 231.85 116.879 234.56 113.967 230.806C113.967 230.806 112.266 232.955 111.564 232.131C110.862 231.306 108.538 230.008 107.863 227.324C106.849 224.2 105.678 221.129 104.354 218.124L110.643 210.248Z" fill="#FFBF9D"/>
<path d="M232.39 134.872C232.995 134.872 257.895 132.24 257.895 132.24C257.895 132.24 260.009 122.119 259.895 119.488C259.781 116.857 258.009 99.4466 258.009 99.4466L267.333 95.0612C267.333 95.0612 279.796 137.091 277.077 140.581C274.358 144.072 269.245 147.203 268.806 147.221C268.368 147.238 244.678 157.746 228.198 152.282C211.717 146.817 232.39 134.872 232.39 134.872Z" fill="#FFBF9D"/>
<path d="M210.568 157.562C214.235 161.202 220.549 164.227 231.092 161.596C251.931 156.386 267.552 151.948 273.762 148.615C279.971 145.283 277.551 130.39 278.077 129.714C279.647 127.68 277.919 123.312 275.682 122.628C269.306 120.698 258.211 121.461 257.65 122.04C254.378 125.478 257.36 129.653 257.36 129.653L229.882 133.258C226.503 133.099 223.118 133.314 219.786 133.898" fill="url(#paint4_linear_1857_50)"/>
<path d="M145.387 162.463L134.194 142.353L345.894 24.5222C348.334 23.1647 351.212 22.8316 353.897 23.5964C356.581 24.3611 358.852 26.1609 360.21 28.6L361.169 30.3243C362.527 32.7633 362.86 35.6418 362.095 38.3263C361.33 41.0109 359.531 43.2818 357.092 44.6393L145.391 162.47L145.387 162.463Z" fill="url(#paint5_linear_1857_50)"/>
<path fill-rule="evenodd" clip-rule="evenodd" d="M304.734 23.4601L296.986 9.54024C296.86 9.3148 296.781 9.06686 296.751 8.81057C296.721 8.55428 296.742 8.29465 296.813 8.04652C296.884 7.79839 297.003 7.56661 297.163 7.36442C297.323 7.16223 297.522 6.99358 297.747 6.86811L309.641 0.248003C309.867 0.122527 310.114 0.0426751 310.371 0.0130211C310.627 -0.0166328 310.887 0.00447995 311.135 0.0751619C311.383 0.145844 311.615 0.264714 311.817 0.424971C312.019 0.585229 312.188 0.783737 312.313 1.00917L338.235 47.5812L322.908 56.1122L316.43 44.4739L302.04 52.4832L306.133 59.837C306.896 61.2084 306.403 62.9388 305.032 63.7021L294.671 69.4691C293.299 70.2324 291.569 69.7394 290.806 68.3681L271.914 34.4258C271.15 33.0545 271.643 31.324 273.015 30.5607L283.376 24.7937C284.747 24.0305 286.478 24.5234 287.241 25.8948L290.344 31.4695L304.734 23.4601Z" fill="url(#paint6_linear_1857_50)"/>
<path d="M59.6498 201.31C75.2618 229.377 108.178 240.779 133.175 226.877C158.172 212.975 165.802 178.945 150.19 150.913C134.578 122.882 101.671 111.445 76.6651 125.347C51.6597 139.248 44.0466 173.279 59.6498 201.31ZM136.648 158.456C147.585 178.103 142.244 201.933 124.72 211.677C107.196 221.422 84.1378 213.431 73.2007 193.767C62.2635 174.103 67.6049 150.291 85.1201 140.538C102.635 130.785 125.711 138.81 136.648 158.456Z" fill="url(#paint7_linear_1857_50)"/>
<path d="M169.83 122.276L181.381 143.029C182.917 145.789 186.399 146.781 189.159 145.245L190.094 144.724C192.853 143.188 193.845 139.706 192.309 136.946L180.758 116.193C179.222 113.434 175.74 112.442 172.981 113.978L172.046 114.498C169.286 116.034 168.294 119.516 169.83 122.276Z" fill="url(#paint8_linear_1857_50)"/>
<path d="M192.014 109.928L203.565 130.681C205.101 133.44 208.583 134.432 211.343 132.896L212.278 132.376C215.037 130.84 216.029 127.358 214.493 124.598L202.942 103.845C201.406 101.085 197.924 100.094 195.164 101.629L194.229 102.15C191.47 103.686 190.478 107.168 192.014 109.928Z" fill="url(#paint9_linear_1857_50)"/>
<path d="M255.738 78.4845C256.759 78.6047 257.788 78.3406 258.626 77.7435C259.463 77.1464 260.048 76.259 260.267 75.2543C260.486 74.2496 260.323 73.1993 259.81 72.3081C259.297 71.4168 258.471 70.7484 257.492 70.4329C258.124 69.7851 258.537 68.9548 258.672 68.0594C258.806 67.164 258.656 66.249 258.242 65.4439C257.828 64.6387 257.171 63.9843 256.364 63.5732C255.557 63.1621 254.642 63.0151 253.747 63.1532C253.71 62.2626 253.443 61.3968 252.973 60.6398C252.502 59.8828 251.844 59.2603 251.062 58.833C250.28 58.4058 249.4 58.1881 248.509 58.2013C247.618 58.2144 246.745 58.4579 245.976 58.9081C244.973 58.088 243.724 57.627 242.429 57.5984C241.134 57.5698 239.866 57.9753 238.828 58.7502C237.955 58.5837 237.053 58.7028 236.253 59.0897C235.454 59.4767 234.8 60.111 234.39 60.8985C233.979 61.6861 233.834 62.585 233.974 63.4619C234.115 64.3388 234.534 65.1471 235.17 65.7669" fill="#263238"/>
<path d="M237.942 62.8374H238.819C243.241 62.8411 247.5 64.5101 250.747 67.512C253.995 70.5139 255.992 74.6286 256.343 79.037C257.001 87.5359 257.615 96.9294 257.545 101.49C257.378 110.963 247.958 112.366 247.958 112.366L248.721 123.715L225.803 122.97L223.9 81.8349C223.093 72.0204 228.119 63.3812 237.942 62.8374Z" fill="#FFBF9D"/>
<path d="M248.037 112.366C243.653 112.354 239.364 111.085 235.679 108.709C235.679 108.709 238.714 115.857 248.134 115.032L248.037 112.366Z" fill="#FF9A6C"/>
<path d="M255.448 74.7393C255.448 74.7393 252.975 68.8191 250.124 67.4333C246.678 65.7493 245.187 69.5295 241.897 68.5998C238.608 67.6701 235.319 66.0651 231.951 68.5998C228.268 71.3714 229.987 73.3272 229.741 77.5197C228.776 94.4999 225.654 99.2887 224.803 91.2898C224.707 90.4127 222.277 89.711 221.926 86.0273C221.47 81.2297 221.304 75.3971 222.391 71.9941C223.268 69.1261 224.944 67.1439 227.882 64.9775C232.53 61.5393 238.898 61.4692 243.222 61.934C247.546 62.3989 255.861 67.3368 255.448 74.7393Z" fill="#263238"/>
<path d="M225.4 91.0266C225.39 90.6801 225.31 90.3392 225.165 90.0245C225.019 89.7098 224.812 89.4279 224.554 89.1958C224.297 88.9637 223.995 88.7863 223.667 88.6744C223.339 88.5624 222.991 88.5183 222.646 88.5445C220.891 88.7111 218.918 89.7022 219.023 93.3421C219.208 99.7974 225.654 98.2801 225.663 98.0871C225.672 97.8941 225.505 93.728 225.4 91.0266Z" fill="#FFBF9D"/>
<path d="M224.181 95.7015C224.181 95.7015 224.075 95.7892 223.882 95.8769C223.62 95.9971 223.322 96.0128 223.049 95.9207C222.623 95.6687 222.272 95.3073 222.033 94.8738C221.794 94.4404 221.676 93.9509 221.69 93.4561C221.656 92.9053 221.746 92.3539 221.953 91.8423C222.009 91.6401 222.113 91.4545 222.256 91.3017C222.4 91.1488 222.579 91.0334 222.777 90.9653C222.906 90.9261 223.044 90.9337 223.168 90.9867C223.291 91.0396 223.392 91.1345 223.453 91.2547C223.54 91.4301 223.505 91.5617 223.54 91.5704C223.575 91.5792 223.672 91.4564 223.611 91.1933C223.576 91.0332 223.482 90.8923 223.347 90.7986C223.259 90.7335 223.158 90.6867 223.051 90.6611C222.944 90.6355 222.833 90.6316 222.725 90.6495C222.46 90.709 222.216 90.8354 222.015 91.0167C221.814 91.1979 221.662 91.4279 221.576 91.6844C221.315 92.2495 221.198 92.87 221.234 93.4912C221.313 94.7893 222.014 95.9909 222.988 96.2365C223.162 96.2823 223.343 96.2879 223.52 96.2529C223.696 96.218 223.862 96.1434 224.005 96.0348C224.181 95.8593 224.207 95.7015 224.181 95.7015Z" fill="#FF9A6C"/>
<path d="M225.566 78.5196C226.356 79.1632 227.293 79.6003 228.294 79.7913C228.797 79.8701 229.311 79.7642 229.741 79.4934C230.172 79.2225 230.489 78.8049 230.636 78.3178C230.715 77.8705 230.636 77.3443 230.899 77.0022C231.162 76.6601 231.908 76.7215 232.443 76.7829C234.32 76.9847 236.521 74.9148 237.003 73.0904C237.247 73.4403 237.615 73.6841 238.032 73.7721C238.449 73.8601 238.884 73.7857 239.249 73.5641C239.845 73.1995 240.374 72.7335 240.81 72.1871C241.064 71.8391 241.399 71.5577 241.785 71.3668C242.171 71.1759 242.598 71.0812 243.029 71.0907C243.483 71.2476 243.954 71.3506 244.432 71.3977C245.309 71.3275 245.695 70.3364 245.827 69.4944C245.958 68.6524 246.064 67.6789 246.783 67.2228C247.521 66.9336 248.337 66.9119 249.09 67.1614C249.87 67.2842 250.844 67.1 251.081 66.337C251.113 66.133 251.104 65.9247 251.054 65.7244C251.004 65.524 250.915 65.3357 250.791 65.1704C250.269 64.3881 249.499 63.8049 248.604 63.5152C247.709 63.2254 246.743 63.2462 245.862 63.5742C245.552 62.4947 244.927 61.5321 244.067 60.809C243.208 60.0858 242.153 59.6349 241.036 59.5135C239.92 59.3922 238.792 59.6059 237.798 60.1276C236.803 60.6493 235.986 61.4552 235.451 62.4427C234.768 61.8171 233.944 61.366 233.048 61.1278C232.153 60.8895 231.214 60.8713 230.31 61.0746C229.406 61.2779 228.565 61.6968 227.858 62.2954C227.151 62.8941 226.6 63.6547 226.25 64.5126C225.461 64.302 224.627 64.3283 223.852 64.5881C223.077 64.8479 222.396 65.3299 221.893 65.974C221.39 66.6181 221.088 67.3959 221.023 68.2105C220.959 69.0252 221.136 69.8407 221.532 70.5557C220.931 70.8525 220.415 71.2972 220.033 71.8479C219.651 72.3987 219.415 73.0375 219.348 73.7044C219.348 75.0376 220.62 76.3356 221.909 76.0199C221.642 76.5452 221.585 77.153 221.752 77.7184C221.919 78.2838 222.296 78.764 222.805 79.0603C223.315 79.3566 223.918 79.4466 224.492 79.3118C225.066 79.177 225.567 78.8276 225.891 78.3354" fill="#263238"/>
<path d="M246.336 65.4686C246.336 65.4686 246.336 65.4686 246.336 65.5914C246.336 65.7142 246.336 65.7844 246.292 65.9335C246.201 66.3712 246.041 66.7916 245.818 67.1789C245.462 67.7859 244.973 68.3045 244.388 68.6963C243.615 69.2235 242.692 69.4851 241.757 69.4418L241.862 69.3015C242.052 69.8806 242.005 70.5112 241.731 71.0556C241.441 71.6327 241.069 72.1645 240.626 72.6343C240.411 72.9083 240.167 73.1583 239.898 73.3799C239.421 73.6937 238.848 73.8281 238.281 73.7591C237.714 73.69 237.19 73.422 236.802 73.0027L237.039 72.9325C236.948 73.6028 236.718 74.2465 236.363 74.8221C236.008 75.3977 235.536 75.8924 234.977 76.2742C234.364 76.7302 233.619 76.9734 232.855 76.9671C232.138 76.928 231.433 76.7709 230.767 76.5022L230.943 76.4233C230.605 77.2043 230.077 77.8887 229.408 78.4143C229.102 78.676 228.742 78.8661 228.354 78.9708C227.965 79.0755 227.558 79.0922 227.163 79.0195C226.484 78.8719 225.864 78.5293 225.378 78.0338C224.892 77.5382 224.561 76.9114 224.426 76.2304L224.575 76.3005C223.893 76.654 223.11 76.7653 222.356 76.6163C221.795 76.5091 221.266 76.2718 220.813 75.9234C220.531 75.7021 220.288 75.4353 220.093 75.134C220.022 75.0294 219.969 74.9138 219.936 74.792C220.181 75.1953 220.499 75.5492 220.874 75.8357C221.321 76.1589 221.838 76.3723 222.383 76.4584C223.099 76.594 223.84 76.4762 224.479 76.1251L224.602 76.0549V76.1953C224.734 76.8291 225.049 77.4106 225.507 77.8685C225.965 78.3265 226.546 78.6411 227.18 78.7739C227.542 78.837 227.913 78.8186 228.266 78.72C228.62 78.6213 228.947 78.445 229.224 78.2038C229.852 77.7042 230.346 77.0562 230.662 76.3181L230.715 76.204H230.838C231.472 76.4594 232.145 76.6076 232.829 76.6426C233.536 76.6483 234.225 76.4235 234.793 76.0023C235.319 75.6416 235.763 75.1752 236.099 74.6331C236.434 74.091 236.652 73.4849 236.74 72.8536V72.5466L236.942 72.7834C237.17 73.0354 237.457 73.2278 237.776 73.344C238.095 73.4602 238.438 73.4966 238.775 73.45C239.089 73.4081 239.39 73.2941 239.652 73.1167C239.906 72.9126 240.135 72.6801 240.336 72.4238C240.77 71.9764 241.136 71.4682 241.424 70.9153C241.553 70.669 241.632 70.3995 241.656 70.1225C241.68 69.8454 241.649 69.5663 241.564 69.3015L241.512 69.1436H241.678C242.574 69.1992 243.464 68.9622 244.213 68.4682C244.788 68.0977 245.274 67.6032 245.634 67.0211C245.958 66.5491 246.195 66.0235 246.336 65.4686Z" fill="#465867"/>
<path d="M293.891 344.896L300.118 366.113C300.118 366.113 323.799 366.902 325.316 370.717L284.567 384.26L273.499 351.588L293.891 344.896Z" fill="#465867"/>
<path d="M286.944 368.542C286.592 368.792 286.345 369.163 286.25 369.584C286.154 370.004 286.217 370.446 286.427 370.823C286.662 371.183 287.028 371.44 287.447 371.539C287.866 371.639 288.308 371.574 288.681 371.358C289.054 371.092 289.315 370.697 289.413 370.25C289.512 369.803 289.442 369.335 289.216 368.937C288.93 368.586 288.519 368.358 288.07 368.303C287.62 368.247 287.166 368.368 286.804 368.639" fill="#E0E0E0"/>
<path d="M323.018 369.183C323.018 369.183 325.097 369.367 325.316 370.717L284.567 384.26L283.585 380.918L322.983 369.165" fill="#263238"/>
<path d="M300.705 365.683C300.767 365.885 299.828 366.306 299.039 367.271C298.25 368.235 298.03 369.244 297.82 369.226C297.609 369.209 297.53 367.963 298.478 366.814C299.425 365.666 300.688 365.49 300.705 365.683Z" fill="white"/>
<path d="M305.564 366.025C305.678 366.209 304.933 366.832 304.53 367.893C304.126 368.955 304.24 369.919 304.038 369.972C303.837 370.025 303.337 368.946 303.854 367.63C304.372 366.315 305.503 365.841 305.564 366.025Z" fill="white"/>
<path d="M309.695 370.332C309.529 370.437 308.924 369.533 309.073 368.279C309.222 367.025 310.002 366.271 310.143 366.411C310.283 366.551 309.897 367.288 309.792 368.358C309.687 369.428 309.888 370.226 309.695 370.332Z" fill="white"/>
<path d="M298.75 361.008C298.75 361.219 297.723 361.245 296.627 361.692C295.531 362.14 294.768 362.789 294.61 362.657C294.452 362.526 295.057 361.534 296.364 361.017C297.671 360.5 298.802 360.815 298.75 361.008Z" fill="white"/>
<path d="M198.868 345.081L190.001 365.341C190.001 365.341 207.621 381.128 206.35 385.058L166.443 369.27L178.958 337.134L198.868 345.081Z" fill="#465867"/>
<path d="M178.345 358.737C177.915 358.703 177.489 358.828 177.146 359.088C176.803 359.349 176.568 359.726 176.485 360.149C176.436 360.577 176.552 361.007 176.81 361.353C177.067 361.698 177.447 361.933 177.871 362.008C178.327 362.042 178.779 361.907 179.141 361.629C179.503 361.35 179.751 360.948 179.836 360.5C179.836 359.622 179.037 358.623 178.178 358.745" fill="#E0E0E0"/>
<path d="M205.569 382.409C205.569 382.409 207.042 383.891 206.35 385.04L166.443 369.253L167.837 366.069L205.551 382.383" fill="#263238"/>
<path d="M190.72 365.394C190.641 365.587 189.633 365.288 188.422 365.534C187.212 365.78 186.379 366.411 186.229 366.253C186.08 366.095 186.817 365.095 188.282 364.824C189.747 364.552 190.843 365.227 190.72 365.394Z" fill="white"/>
<path d="M194.228 368.779C194.228 368.981 193.229 368.981 192.237 369.542C191.246 370.104 190.72 370.902 190.483 370.823C190.246 370.744 190.606 369.586 191.843 368.911C193.079 368.235 194.299 368.595 194.228 368.779Z" fill="white"/>
<path d="M194.632 374.726C194.439 374.726 194.553 373.621 195.509 372.752C196.465 371.884 197.509 371.814 197.526 372.007C197.544 372.2 196.754 372.551 196.009 373.279C195.263 374.007 194.834 374.787 194.632 374.726Z" fill="white"/>
<path d="M192.237 360.578C192.088 360.719 191.299 360.105 190.167 359.701C189.036 359.298 188.045 359.351 188.01 359.149C187.975 358.947 189.071 358.57 190.396 359.009C191.72 359.447 192.395 360.438 192.237 360.578Z" fill="white"/>
<path d="M213.805 233.78L199.824 290.491C199.824 290.491 174.608 332.942 170.337 354.185L193.404 363.254C193.404 363.254 210.182 322.338 215.103 314.83C217.317 311.465 219.861 308.33 222.698 305.472C224.543 303.642 225.866 301.353 226.531 298.841L237.118 258.382L213.805 233.78Z" fill="#263238"/>
<path d="M207.849 224.711C207.849 224.711 209.796 239.902 224.417 246.638L255.22 296.806C255.22 296.806 257.632 313.12 262.237 326.864C266.842 340.607 276.147 367.095 276.147 367.095L301.486 357.623L285.339 302.42L282.708 283.273L257.571 219.246L235.977 206.301L207.849 224.711Z" fill="#263238"/>
<path d="M207.849 224.711L208.314 224.395L209.709 223.465L215.182 219.852L235.933 206.213L236.004 206.169L236.074 206.213L257.685 219.132V219.185L282.874 283.15V283.194C283.708 289.246 284.629 295.728 285.506 302.341C289.891 317.251 294.54 333.205 299.346 349.641C300.124 352.29 300.895 354.921 301.661 357.535L301.723 357.737L301.521 357.807L276.182 367.279L275.963 367.358L275.893 367.139C271.508 354.413 267.263 342.16 263.254 330.539C262.246 327.636 261.255 324.759 260.43 321.882C259.606 319.005 258.86 316.146 258.185 313.322C256.852 307.673 255.782 302.156 254.94 296.806V296.876L224.312 246.69L224.365 246.734C220.66 245.002 217.37 242.496 214.717 239.384C212.772 237.1 211.176 234.54 209.981 231.789C209.241 230.09 208.654 228.329 208.227 226.526C208.077 225.93 207.99 225.465 207.937 225.149C207.884 224.833 207.876 224.676 207.876 224.676C207.876 224.676 207.876 224.833 207.972 225.14C208.069 225.447 208.121 225.912 208.288 226.517C208.741 228.297 209.345 230.034 210.095 231.71C211.305 234.433 212.906 236.966 214.848 239.226C217.512 242.305 220.801 244.781 224.496 246.488L255.361 296.622V296.666C256.238 301.999 257.29 307.507 258.623 313.146C259.299 315.962 260.035 318.812 260.869 321.68C261.702 324.548 262.684 327.407 263.693 330.311C267.719 341.932 271.955 354.185 276.358 366.902L276.068 366.771L301.407 357.298L301.267 357.57C300.507 354.956 299.735 352.325 298.951 349.676L285.129 302.367C284.251 295.754 283.322 289.272 282.497 283.22V283.273L257.404 219.246L257.474 219.325L235.898 206.353H236.03L215.278 219.931L209.753 223.492L208.332 224.412L207.849 224.711Z" fill="#465867"/>
<path d="M221.418 116.33C221.418 116.33 214.033 122.014 210.446 128.364C206.148 135.968 205.683 147.238 205.551 164.745C205.42 180.936 207.841 185.435 206.911 191.54C205.078 203.459 203.718 243.462 203.718 243.462C203.718 243.462 227.399 234.367 231.995 230.306L236.617 226.289L266.254 236.086L260.272 199.67L256.168 154.281L250.905 130.206L250.028 120.76L224.575 110.533L221.418 116.33Z" fill="url(#paint10_linear_1857_50)"/>
<path d="M249.072 120.26C249.379 120.321 248.344 122.4 246.52 125.452L246.441 125.575L246.3 125.522C243.731 124.522 240.327 123.268 236.609 121.908C232.416 120.382 228.627 118.962 225.917 117.856C224.558 117.304 223.47 116.839 222.725 116.497C222.329 116.344 221.947 116.156 221.584 115.936C222.001 116.028 222.406 116.164 222.795 116.339L226.031 117.558L236.767 121.479C240.485 122.838 243.88 124.11 246.414 125.198L246.204 125.268C248.116 122.277 249.247 120.303 249.072 120.26Z" fill="#EF7100"/>
<path d="M279.7 101.35C279.7 101.35 277.823 98.4292 276.051 95.7365C274.279 93.0439 271.595 91.7195 271.166 90.3162C270.736 88.9129 268.376 82.6593 267.999 81.1069C267.672 79.6034 267.519 78.0671 267.543 76.5286C267.543 76.5286 269.482 75.7041 270.411 78.4757C270.973 80.1421 272.762 85.7993 273.148 86.0799C273.534 86.3606 274.025 85.9484 274.025 85.9484C273.228 83.8302 272.54 81.6727 271.964 79.4843C271.876 78.4581 272.236 71.652 272.236 71.652C272.716 71.5551 273.216 71.6336 273.644 71.8733C274.072 72.1131 274.4 72.4982 274.569 72.9589C275.49 74.713 275.525 79.0984 275.525 79.0984L276.919 83.9925L276.428 79.151L277.13 70.2487C277.811 70.3459 278.446 70.6505 278.948 71.1213C279.45 71.5921 279.795 72.2062 279.936 72.8799C280.524 75.2831 279.743 78.6335 280.138 79.344C280.533 80.0544 280.963 84.3521 280.963 84.3521C280.963 84.3521 281.445 73.9149 282.559 73.6167C283.673 73.3185 284.585 74.4236 284.427 76.5286C284.269 78.6335 284.225 83.0891 284.804 85.0537C285.383 87.0184 291.321 94.7016 290.838 98.0696C290.543 100.104 290.358 102.154 290.286 104.209H280.112L279.7 101.35Z" fill="#FFBF9D"/>
<path d="M244.011 127.636C244.581 127.855 268.885 133.872 268.885 133.872C268.885 133.872 274.314 125.101 275.112 122.558C275.91 120.014 280.182 103.069 280.182 103.069L290.452 102.104C290.452 102.104 287.821 145.861 284.102 148.221C280.384 150.58 274.455 151.773 274.069 151.641C273.683 151.51 247.8 153.308 234.162 142.564C220.523 131.819 244.011 127.636 244.011 127.636Z" fill="#FFBF9D"/>
<g opacity="0.3">
<path d="M226.592 150.799C229.201 153.752 232.681 155.798 236.53 156.641C242.976 158.062 256.703 160.579 256.703 160.579L256.036 153.843L226.215 150.65" fill="black"/>
</g>
<path d="M215.769 141.537C217.98 146.204 222.891 151.185 233.688 152.317C255.062 154.527 271.244 155.702 278.235 154.65C285.225 153.597 288.005 138.801 288.76 138.345C290.935 136.977 290.795 132.276 288.918 130.872C283.585 126.882 272.893 123.856 272.174 124.18C267.92 126.294 269.306 131.241 269.306 131.241L242.205 125.259C239.083 123.961 235.826 123.013 232.495 122.435" fill="url(#paint11_linear_1857_50)"/>
<path d="M232.495 122.435C232.495 122.435 232.723 122.435 233.162 122.522C233.6 122.61 234.258 122.715 235.1 122.9C237.544 123.454 239.938 124.211 242.257 125.162L269.341 131.056L269.113 131.302C268.712 129.748 268.835 128.104 269.464 126.627C269.81 125.871 270.334 125.209 270.99 124.698C271.323 124.438 271.678 124.209 272.051 124.013C272.179 123.975 272.312 123.955 272.446 123.952H272.77C272.99 123.952 273.183 124.022 273.393 124.057C276.726 124.846 279.977 125.947 283.102 127.346C284.75 128.064 286.341 128.902 287.865 129.855C288.242 130.1 288.619 130.372 288.996 130.635C289.386 130.932 289.704 131.313 289.926 131.749C290.354 132.611 290.576 133.559 290.575 134.521C290.598 135.494 290.381 136.458 289.944 137.328C289.701 137.776 289.359 138.163 288.944 138.459C288.839 138.512 288.768 138.74 288.681 138.95L288.453 139.608C287.874 141.362 287.295 143.239 286.593 145.046C285.674 147.637 284.328 150.056 282.611 152.203C281.989 153.019 281.195 153.688 280.286 154.164C279.377 154.64 278.374 154.91 277.349 154.957C276.691 155.053 276.033 155.071 275.384 155.123C272.753 155.281 270.227 155.246 267.727 155.176C265.228 155.106 262.781 154.974 260.404 154.825C250.87 154.211 242.318 153.343 235.144 152.597C233.43 152.447 231.726 152.201 230.039 151.861C228.543 151.541 227.076 151.095 225.654 150.528C223.35 149.633 221.239 148.305 219.435 146.616C218.309 145.538 217.341 144.307 216.559 142.958C216.279 142.496 216.035 142.012 215.831 141.511C215.831 141.511 216.076 142.011 216.638 142.914C217.448 144.229 218.43 145.43 219.558 146.484C221.36 148.137 223.462 149.429 225.75 150.291C227.174 150.84 228.641 151.271 230.136 151.58C231.818 151.902 233.516 152.134 235.223 152.273C242.397 152.983 250.949 153.817 260.465 154.413C262.851 154.553 265.289 154.676 267.78 154.737C270.271 154.799 272.823 154.834 275.402 154.685C276.042 154.623 276.7 154.606 277.34 154.509C277.979 154.476 278.611 154.355 279.217 154.15C280.429 153.683 281.499 152.909 282.322 151.905C284.002 149.799 285.318 147.427 286.216 144.888C286.918 143.134 287.488 141.283 288.067 139.476L288.312 138.792C288.312 138.687 288.4 138.573 288.453 138.45C288.485 138.382 288.523 138.318 288.567 138.257C288.6 138.215 288.638 138.177 288.681 138.143L288.742 138.091C289.106 137.839 289.406 137.505 289.619 137.117C290.029 136.302 290.228 135.397 290.198 134.486C290.2 133.598 289.999 132.722 289.61 131.925C289.419 131.548 289.146 131.219 288.812 130.96C288.435 130.706 288.075 130.434 287.698 130.197C286.197 129.251 284.625 128.422 282.997 127.715C279.906 126.321 276.691 125.223 273.393 124.434C273.191 124.434 272.99 124.347 272.797 124.329H272.507H272.314C271.969 124.514 271.64 124.728 271.332 124.97C270.721 125.43 270.231 126.032 269.902 126.724C269.321 128.111 269.201 129.648 269.56 131.109L269.639 131.416L269.332 131.346L242.292 125.294C239.995 124.327 237.625 123.542 235.205 122.943C234.328 122.742 233.723 122.601 233.285 122.514C232.846 122.426 232.495 122.435 232.495 122.435Z" fill="#FF9D44"/>
<path d="M278.235 139.704C277.611 139.55 277.019 139.292 276.481 138.941C275.136 138.191 273.897 137.265 272.797 136.187C271.691 135.114 270.725 133.906 269.92 132.591C269.554 132.053 269.273 131.461 269.087 130.837C270.289 132.609 271.635 134.278 273.113 135.828C274.701 137.27 276.415 138.568 278.235 139.704Z" fill="#EF7100"/>
<path d="M87.418 211.94C87.418 211.94 92.8559 212.23 96.1888 214.344C99.5217 216.457 104.96 219.72 107.196 223.79C108.222 225.658 105.302 226.053 103.863 224.965C102.425 223.877 100.206 221.843 99.1095 221.588L98.0131 221.343C99.0127 223.606 100.128 225.816 101.355 227.965C102.486 229.719 103.469 232.631 100.074 232.771C100.074 232.771 97.7763 235.753 95.4608 233.543C95.4608 233.543 93.654 236.244 90.7421 232.499C90.7421 232.499 89.0494 234.639 88.339 233.823C87.6285 233.008 85.313 231.701 84.6377 229.017C83.63 225.891 82.4589 222.82 81.1294 219.817L87.418 211.94Z" fill="#FFBF9D"/>
<path d="M41.1435 140.432C38.3561 141.33 35.9503 143.137 34.3111 145.563C32.2236 148.773 31.5834 154.334 32.1798 158.474C33.4428 167.201 37.4422 181.927 39.6963 191.382C40.4681 194.644 42.0557 200.486 46.7129 203.582L79.9454 223.509L88.8301 210.353L58.5359 185.663L52.5455 151.826L41.1435 140.432Z" fill="url(#paint12_linear_1857_50)"/>
<path d="M35.3987 173.691C35.4442 173.802 35.4795 173.916 35.5039 174.033L35.7846 175.059C36.0214 175.989 36.3547 177.322 36.7932 179.032C37.6703 182.541 38.9158 187.523 40.4682 193.723C41.3695 197.101 43.2786 200.124 45.9411 202.389C47.4621 203.607 49.0881 204.687 50.8001 205.617L56.1415 208.844L80.077 223.299L79.77 223.369L82.9713 218.624L88.6548 210.177L88.6986 210.484L58.6763 185.76H58.6237V185.698C56.6415 177.357 55.2031 170.525 54.2909 165.771C53.8436 163.394 53.5278 161.544 53.3261 160.281C53.2384 159.667 53.1682 159.184 53.1156 158.842C53.063 158.5 53.0542 158.351 53.0542 158.351C53.1019 158.509 53.1399 158.67 53.1682 158.833C53.2296 159.175 53.3173 159.649 53.4226 160.263C53.6594 161.517 54.0015 163.368 54.4926 165.736C55.4486 170.472 56.9397 177.287 58.9657 185.619L58.9043 185.523L88.9793 210.134L89.1371 210.265L89.0231 210.432L83.3397 218.878L80.1383 223.623L80.0243 223.798L79.8314 223.693L55.931 209.195L50.5984 205.959C48.8751 205.019 47.2374 203.93 45.7043 202.705C42.9957 200.385 41.064 197.29 40.17 193.838C38.6702 187.619 37.4686 182.593 36.6617 179.111C36.267 177.357 35.9512 176.05 35.732 175.121L35.4776 174.042C35.4431 173.927 35.4167 173.81 35.3987 173.691Z" fill="#263238"/>
<path d="M35.9425 145.107C36.1488 144.972 36.3775 144.874 36.6179 144.818C37.2545 144.621 37.9055 144.474 38.565 144.379C40.7649 144.04 43.0159 144.345 45.0466 145.256C47.0092 146.28 48.6762 147.79 49.888 149.642C50.2554 150.201 50.5502 150.806 50.7651 151.44C50.8593 151.665 50.9127 151.906 50.923 152.15C50.5439 151.345 50.1072 150.568 49.6161 149.826C48.3677 148.097 46.7342 146.683 44.8448 145.695C42.8853 144.826 40.7303 144.493 38.6 144.73C36.9599 144.862 35.9688 145.186 35.9425 145.107Z" fill="#263238"/>
<defs>
<linearGradient id="paint0_linear_1857_50" x1="473.676" y1="28.648" x2="473.676" y2="94.6753" gradientUnits="userSpaceOnUse">
<stop stop-color="#EE575C"/>
<stop offset="1" stop-color="#F67147"/>
</linearGradient>
<linearGradient id="paint1_linear_1857_50" x1="470.725" y1="64.4958" x2="459.663" y2="117.585" gradientUnits="userSpaceOnUse">
<stop stop-color="#465867"/>
<stop offset="1" stop-color="#728594"/>
</linearGradient>
<linearGradient id="paint2_linear_1857_50" x1="88.0708" y1="141.293" x2="88.0708" y2="222.016" gradientUnits="userSpaceOnUse">
<stop stop-color="#465867"/>
<stop offset="1" stop-color="#728594"/>
</linearGradient>
<linearGradient id="paint3_linear_1857_50" x1="59.8909" y1="135.293" x2="59.8909" y2="227.061" gradientUnits="userSpaceOnUse">
<stop stop-color="#465867"/>
<stop offset="1" stop-color="#728594"/>
</linearGradient>
<linearGradient id="paint4_linear_1857_50" x1="244.625" y1="121.392" x2="244.625" y2="162.59" gradientUnits="userSpaceOnUse">
<stop stop-color="#FF9D44"/>
<stop offset="1" stop-color="#F5C58D"/>
</linearGradient>
<linearGradient id="paint5_linear_1857_50" x1="139.792" y1="152.412" x2="360.689" y2="29.4621" gradientUnits="userSpaceOnUse">
<stop stop-color="#EE575C"/>
<stop offset="1" stop-color="#F67147"/>
</linearGradient>
<linearGradient id="paint6_linear_1857_50" x1="304.895" y1="0" x2="304.895" y2="69.8283" gradientUnits="userSpaceOnUse">
<stop stop-color="#EE575C"/>
<stop offset="1" stop-color="#F67147"/>
</linearGradient>
<linearGradient id="paint7_linear_1857_50" x1="104.921" y1="119.432" x2="104.921" y2="232.798" gradientUnits="userSpaceOnUse">
<stop stop-color="#EE575C"/>
<stop offset="1" stop-color="#F67147"/>
</linearGradient>
<linearGradient id="paint8_linear_1857_50" x1="175.606" y1="132.652" x2="186.534" y2="126.57" gradientUnits="userSpaceOnUse">
<stop stop-color="#EE575C"/>
<stop offset="1" stop-color="#F67147"/>
</linearGradient>
<linearGradient id="paint9_linear_1857_50" x1="197.789" y1="120.304" x2="208.718" y2="114.222" gradientUnits="userSpaceOnUse">
<stop stop-color="#EE575C"/>
<stop offset="1" stop-color="#F67147"/>
</linearGradient>
<linearGradient id="paint10_linear_1857_50" x1="234.986" y1="110.533" x2="234.986" y2="243.462" gradientUnits="userSpaceOnUse">
<stop stop-color="#FF9D44"/>
<stop offset="1" stop-color="#F5C58D"/>
</linearGradient>
<linearGradient id="paint11_linear_1857_50" x1="253.064" y1="122.435" x2="253.064" y2="155.04" gradientUnits="userSpaceOnUse">
<stop stop-color="#FF9D44"/>
<stop offset="1" stop-color="#F5C58D"/>
</linearGradient>
<linearGradient id="paint12_linear_1857_50" x1="60.3985" y1="140.432" x2="60.3985" y2="223.509" gradientUnits="userSpaceOnUse">
<stop stop-color="#465867"/>
<stop offset="1" stop-color="#728594"/>
</linearGradient>
</defs>
</svg>
